<?xml version="1.0" encoding="UTF-8"?>
<svg xmlns="http://www.w3.org/2000/svg" viewBox="0 0 512 640" role="img" aria-labelledby="title" style="color:#17324d">
  <title>Storm Drain map marker</title>
  
  
  <path fill="currentColor" d="M256 32c-104.897 0-190 85.103-190 190 0 73.426 33.9 129.847 80.67 188.403L256 574l109.33-163.597C412.1 351.847 446 295.426 446 222 446 117.103 360.897 32 256 32z"/>
  <circle cx="256" cy="222" r="116" fill="#ffffff"/>
  
    <g transform="translate(156 122) scale(0.390625)" fill="none" stroke-linecap="round" stroke-linejoin="round">
      
      <path d="M96 174c28-26 60-38 98-38 36 0 62 12 86 30 20 16 38 28 64 28 22 0 42-6 64-20" fill="none" stroke="currentColor" stroke-width="24" stroke-linecap="round" stroke-linejoin="round"/>
      <path fill="currentColor" fill-rule="evenodd" d="M132 220h248c20 0 36 16 36 36v108c0 20-16 36-36 36H132c-20 0-36-16-36-36V256c0-20 16-36 36-36zm34 36v108h28V256zm60 0v108h28V256zm60 0v108h28V256zm60 0v108h28V256z"/>
    
    </g>
  

</svg>
