<svg xmlns="http://www.w3.org/2000/svg" viewBox="0 0 512 512" role="img" aria-hidden="true">
  <g fill="none" stroke-linecap="round" stroke-linejoin="round">
    
    <rect x="212" y="208" width="88" height="88" rx="14" fill="#1a3153"/>
    <line x1="212" y1="252" x2="300" y2="252" stroke="#ffffff" stroke-width="8"/>
    <line x1="256" y1="208" x2="256" y2="296" stroke="#ffffff" stroke-width="8"/>

    <rect x="94" y="198" width="104" height="108" rx="10" fill="#2a7262" stroke="#1a3153" stroke-width="10"/>
    <line x1="94" y1="252" x2="198" y2="252" stroke="#1a3153" stroke-width="8"/>
    <line x1="146" y1="198" x2="146" y2="306" stroke="#1a3153" stroke-width="8"/>

    <rect x="314" y="198" width="104" height="108" rx="10" fill="#2a7262" stroke="#1a3153" stroke-width="10"/>
    <line x1="314" y1="252" x2="418" y2="252" stroke="#1a3153" stroke-width="8"/>
    <line x1="366" y1="198" x2="366" y2="306" stroke="#1a3153" stroke-width="8"/>

    <line x1="256" y1="296" x2="298" y2="356" stroke="#1a3153" stroke-width="10"/>
    <path d="M300 356 A38 38 0 1 0 370 392" stroke="#1a3153" stroke-width="10"/>
    <path d="M316 356 A22 22 0 1 0 356 376" stroke="#1a3153" stroke-width="10"/>
    
  </g>
</svg>
