<svg xmlns="http://www.w3.org/2000/svg" viewBox="0 0 512 512" role="img" aria-hidden="true">
  <g fill="none" stroke-linecap="round" stroke-linejoin="round">
    
    <path d="M88 132 L188 96 L268 128 L356 96 L424 126 V366 L332 402 L252 372 L164 402 L88 374 Z" fill="#d7e1ee" stroke="#1a3153" stroke-width="10"/>
    <line x1="188" y1="96" x2="188" y2="402" stroke="#1a3153" stroke-width="10"/>
    <line x1="268" y1="128" x2="268" y2="372" stroke="#1a3153" stroke-width="10"/>

    <path d="M116 310 C152 286 178 278 214 286" stroke="#9fb3cc" stroke-width="14"/>
    <path d="M210 236 C248 208 296 206 336 224" stroke="#9fb3cc" stroke-width="14"/>
    <path d="M286 314 C316 300 344 302 382 326" stroke="#9fb3cc" stroke-width="14"/>
    <line x1="222" y1="188" x2="244" y2="170" stroke="#ffffff" stroke-width="8"/>
    <line x1="250" y1="250" x2="276" y2="250" stroke="#ffffff" stroke-width="8"/>
    <line x1="304" y1="338" x2="328" y2="350" stroke="#ffffff" stroke-width="8"/>
    
  </g>
</svg>
