<svg xmlns="http://www.w3.org/2000/svg" viewBox="0 0 2400 1600" role="img" aria-labelledby="title desc">
  <title id="title">CityReport Pothole Logo (Traced)</title>
  <desc id="desc">Top-down cracked hole logo with dark blue cracks and green center.</desc>

  <!-- Dark blue crack + rim silhouette -->
  <path
    fill="#1E3C6A"
    d="M988 348
       L1060 425
       L1022 471
       L1066 518
       L1190 496
       L1262 510
       L1328 523
       L1376 515
       L1440 542
       L1546 548
       L1610 520
       L1734 538
       L1816 482
       L1998 526
       L1832 514
       L1768 598
       L1632 580
       L1534 568
       L1466 560
       L1512 598
       L1576 608
       L1640 666
       L1730 694
       L1788 784
       L1798 868
       L1728 906
       L1700 958
       L1614 964
       L1588 1002
       L1532 1014
       L1494 1050
       L1642 1092
       L1884 994
       L2048 1146
       L1882 1256
       L1740 1174
       L1594 1230
       L1390 1168
       L1246 1118
       L1220 1142
       L1168 1158
       L1116 1158
       L1096 1172
       L1038 1182
       L1008 1128
       L910 1146
       L870 1178
       L768 1176
       L714 1158
       L658 1142
       L612 1142
       L580 1118
       L520 1112
       L456 1088
       L412 1064
       L330 1028
       L126 1080
       L170 1174
       L152 1302
       L16 1438
       L72 1264
       L138 1194
       L154 1040
       L0 1124
       L118 1046
       L128 896
       L322 924
       L486 952
       L706 886
       L676 862
       L608 850
       L594 798
       L562 790
       L560 748
       L530 724
       L524 654
       L556 620
       L574 558
       L626 512
       L652 470
       L720 458
       L746 430
       L786 396
       L842 384
       L872 398
       L914 372
       L978 392
       L996 366
       Z"
    transform="translate(140,40)"
  />

  <!-- Slight blue offset highlight visible on the right/lower edge in the PNG -->
  <path
    fill="#355D8E"
    d="M1742 792
       L1784 824
       L1788 866
       L1722 902
       L1692 952
       L1608 958
       L1582 996
       L1528 1006
       L1496 1038
       L1462 1030
       L1496 1000
       L1548 988
       L1572 950
       L1654 946
       L1686 898
       L1742 864
       Z"
    transform="translate(140,40)"
  />

  <!-- Green center -->
  <path
    fill="#2F7E6E"
    d="M602 848
       L642 776
       L678 746
       L720 700
       L760 714
       L812 668
       L862 650
       L892 662
       L942 636
       L998 654
       L1030 624
       L1118 632
       L1168 620
       L1232 652
       L1328 626
       L1372 648
       L1482 630
       L1566 650
       L1644 650
       L1668 684
       L1672 712
       L1738 684
       L1786 730
       L1850 714
       L1902 752
       L1968 738
       L2044 788
       L2046 808
       L1978 848
       L1952 888
       L1862 890
       L1832 932
       L1770 938
       L1734 978
       L1644 1004
       L1608 1000
       L1558 1040
       L1498 1040
       L1450 1060
       L1406 1058
       L1374 1076
       L1308 1082
       L1260 1080
       L1240 1092
       L1188 1106
       L1142 1108
       L1102 1120
       L1040 1118
       L968 1120
       L886 1112
       L824 1084
       L764 1082
       L712 1062
       L666 1038
       L628 1008
       L602 972
       Z"
    transform="translate(140,40)"
  />
</svg>
