<svg xmlns="http://www.w3.org/2000/svg" viewBox="0 0 512 512" role="img" aria-hidden="true">
  <g fill="none" stroke-linecap="round" stroke-linejoin="round">
    
    <ellipse cx="256" cy="280" rx="126" ry="92" fill="#1a3153" stroke="#1a3153" stroke-width="14"/>
    <ellipse cx="256" cy="296" rx="34" ry="18" fill="#2a7262"/>

    <path d="M254 186 L242 152 L264 132 L252 96" stroke="#1a3153" stroke-width="10"/>
    <path d="M322 212 L354 196 L382 214 L414 198" stroke="#1a3153" stroke-width="10"/>
    <path d="M352 270 L386 268 L404 294 L438 292" stroke="#1a3153" stroke-width="10"/>
    <path d="M322 334 L344 360 L334 390 L356 420" stroke="#1a3153" stroke-width="10"/>
    <path d="M252 374 L236 404 L248 432 L232 462" stroke="#1a3153" stroke-width="10"/>
    <path d="M186 336 L154 354 L142 386 L110 404" stroke="#1a3153" stroke-width="10"/>
    <path d="M160 270 L124 276 L104 302 L70 308" stroke="#1a3153" stroke-width="10"/>
    <path d="M186 214 L154 198 L132 212 L98 196" stroke="#1a3153" stroke-width="10"/>

    <path d="M246 146 L228 136" stroke="#1a3153" stroke-width="8"/>
    <path d="M346 202 L338 176" stroke="#1a3153" stroke-width="8"/>
    <path d="M392 278 L414 270" stroke="#1a3153" stroke-width="8"/>
    <path d="M338 372 L366 382" stroke="#1a3153" stroke-width="8"/>
    <path d="M238 418 L218 426" stroke="#1a3153" stroke-width="8"/>
    <path d="M148 366 L126 356" stroke="#1a3153" stroke-width="8"/>
    <path d="M112 286 L90 274" stroke="#1a3153" stroke-width="8"/>
    <path d="M148 206 L130 182" stroke="#1a3153" stroke-width="8"/>
    
  </g>
</svg>
