<?xml version="1.0" encoding="UTF-8" standalone="no"?>
<!DOCTYPE svg PUBLIC "-//W3C//DTD SVG 1.1//EN" "http://www.w3.org/Graphics/SVG/1.1/DTD/svg11.dtd">
<!-- Created with Vectornator (http://vectornator.io/) -->
<svg height="1024.0px" stroke-miterlimit="10" style="fill-rule:nonzero;clip-rule:evenodd;stroke-linecap:round;stroke-linejoin:round;" version="1.1" viewBox="0 0 1024 1024" width="1024.0px" xml:space="preserve" xmlns="http://www.w3.org/2000/svg" xmlns:xlink="http://www.w3.org/1999/xlink">
<defs/>
<clipPath id="ArtboardFrame">
<rect height="1024" width="1024" x="0" y="0"/>
</clipPath>
<g clip-path="url(#ArtboardFrame)" id="Layer-1">
<path d="M183 329.016C183 147.305 330.298 5.68434e-14 512 5.68434e-14C693.702 5.68434e-14 841 147.305 841 329.016C841 510.726 693.702 658.031 512 658.031C330.298 658.031 183 510.726 183 329.016Z" fill="#ffffff" fill-rule="nonzero" opacity="1" stroke="none"/>
<path d="M512 5.68434e-14C330.292 5.68434e-14 183 147.292 183 329C183 388.872 199.116 444.947 227.062 493.312L227.938 494.906L369.531 758.656L512 1024L654.469 758.656L796.062 494.906L796.938 493.312C824.884 444.947 841 388.872 841 329C841 147.292 693.708 5.68434e-14 512 5.68434e-14ZM512 79C650.071 79 762 190.929 762 329C762 391.919 738.712 449.369 700.344 493.312C700.295 493.368 700.236 493.413 700.188 493.469C697.433 496.618 694.625 499.712 691.719 502.719C691.606 502.835 691.488 502.946 691.375 503.062C688.39 506.138 685.327 509.143 682.188 512.062C678.991 515.036 675.724 517.914 672.375 520.719C662.391 529.079 651.75 536.698 640.531 543.438C640.251 543.606 639.969 543.77 639.688 543.938C636.383 545.905 633.026 547.776 629.625 549.594C628.698 550.09 627.747 550.547 626.812 551.031C623.953 552.513 621.079 553.971 618.156 555.344C617.081 555.85 615.989 556.322 614.906 556.812C612 558.127 609.089 559.419 606.125 560.625C605.245 560.983 604.353 561.308 603.469 561.656C600.309 562.9 597.128 564.102 593.906 565.219C592.827 565.593 591.742 565.952 590.656 566.312C587.848 567.243 585.008 568.105 582.156 568.938C580.67 569.372 579.185 569.811 577.688 570.219C575.245 570.882 572.784 571.503 570.312 572.094C568.299 572.576 566.283 573.036 564.25 573.469C562.137 573.918 560.007 574.323 557.875 574.719C555.856 575.094 553.848 575.486 551.812 575.812C548.873 576.283 545.911 576.664 542.938 577.031C541.635 577.192 540.34 577.39 539.031 577.531C535.738 577.885 532.424 578.15 529.094 578.375C527.903 578.456 526.726 578.561 525.531 578.625C521.053 578.864 516.538 579 512 579C507.462 579 502.947 578.864 498.469 578.625C497.273 578.561 496.097 578.455 494.906 578.375C491.576 578.15 488.262 577.885 484.969 577.531C483.66 577.39 482.365 577.192 481.062 577.031C478.089 576.664 475.127 576.283 472.188 575.812C470.152 575.486 468.144 575.094 466.125 574.719C463.993 574.323 461.863 573.918 459.75 573.469C457.717 573.036 455.702 572.576 453.688 572.094C451.216 571.503 448.755 570.882 446.312 570.219C444.815 569.811 443.33 569.372 441.844 568.938C438.992 568.105 436.152 567.243 433.344 566.312C432.258 565.952 431.173 565.593 430.094 565.219C426.872 564.102 423.691 562.9 420.531 561.656C419.647 561.308 418.754 560.983 417.875 560.625C414.911 559.419 412 558.127 409.094 556.812C408.01 556.322 406.919 555.85 405.844 555.344C402.921 553.971 400.047 552.513 397.188 551.031C396.253 550.547 395.302 550.09 394.375 549.594C390.974 547.776 387.618 545.905 384.312 543.938C384.032 543.77 383.748 543.606 383.469 543.438C372.25 536.698 361.609 529.079 351.625 520.719C348.276 517.914 345.009 515.036 341.812 512.062C338.674 509.143 335.61 506.138 332.625 503.062C332.512 502.946 332.394 502.835 332.281 502.719C329.375 499.712 326.567 496.617 323.812 493.469C323.764 493.413 323.705 493.368 323.656 493.312C285.288 449.369 262 391.919 262 329C262 190.929 373.929 79 512 79Z" fill="#ffd335" fill-rule="nonzero" opacity="1" stroke="none"/>
<path d="M512 0C330.292 0 183 147.292 183 329C183 388.872 199.116 444.947 227.063 493.312L227.938 494.906L369.531 758.656L512 1024L654.469 758.656L796.063 494.906L796.938 493.312C824.884 444.947 841 388.872 841 329C841 147.292 693.708 0 512 0ZM512 79C650.071 79 762 190.929 762 329C762 391.919 738.712 449.369 700.344 493.312C700.295 493.368 700.236 493.413 700.188 493.469C697.433 496.618 694.625 499.712 691.719 502.719C691.606 502.835 691.488 502.946 691.375 503.062C688.39 506.138 685.327 509.143 682.188 512.062C678.991 515.036 675.724 517.914 672.375 520.719C662.391 529.079 651.75 536.698 640.531 543.438C640.251 543.606 639.969 543.77 639.688 543.937C636.383 545.905 633.026 547.776 629.625 549.594C628.698 550.09 627.747 550.547 626.813 551.031C623.953 552.513 621.079 553.971 618.156 555.344C617.081 555.85 615.989 556.322 614.906 556.812C612 558.127 609.089 559.419 606.125 560.625C605.245 560.983 604.353 561.308 603.469 561.656C600.309 562.9 597.128 564.102 593.906 565.219C592.827 565.593 591.742 565.952 590.656 566.312C587.848 567.243 585.008 568.105 582.156 568.937C580.67 569.372 579.185 569.811 577.688 570.219C575.245 570.882 572.784 571.503 570.313 572.094C568.299 572.576 566.283 573.036 564.25 573.469C562.137 573.918 560.007 574.323 557.875 574.719C555.856 575.094 553.848 575.486 551.813 575.812C548.873 576.283 545.911 576.664 542.938 577.031C541.635 577.192 540.34 577.39 539.031 577.531C535.738 577.885 532.424 578.15 529.094 578.375C527.903 578.456 526.726 578.561 525.531 578.625C521.053 578.864 516.538 579 512 579C507.462 579 502.947 578.864 498.469 578.625C497.273 578.561 496.097 578.455 494.906 578.375C491.576 578.15 488.262 577.885 484.969 577.531C483.66 577.39 482.365 577.192 481.063 577.031C478.089 576.664 475.127 576.283 472.188 575.812C470.152 575.486 468.144 575.094 466.125 574.719C463.993 574.323 461.863 573.918 459.75 573.469C457.717 573.036 455.702 572.576 453.688 572.094C451.216 571.503 448.755 570.882 446.313 570.219C444.815 569.811 443.33 569.372 441.844 568.937C438.992 568.105 436.152 567.243 433.344 566.312C432.258 565.952 431.173 565.593 430.094 565.219C426.872 564.102 423.691 562.9 420.531 561.656C419.647 561.308 418.754 560.983 417.875 560.625C414.911 559.419 412 558.127 409.094 556.812C408.01 556.322 406.919 555.85 405.844 555.344C402.921 553.971 400.047 552.513 397.188 551.031C396.253 550.547 395.302 550.09 394.375 549.594C390.974 547.776 387.618 545.905 384.313 543.937C384.032 543.77 383.748 543.606 383.469 543.438C372.25 536.698 361.609 529.079 351.625 520.719C348.276 517.914 345.009 515.036 341.813 512.062C338.674 509.143 335.61 506.138 332.625 503.062C332.512 502.946 332.394 502.835 332.281 502.719C329.375 499.712 326.567 496.617 323.813 493.469C323.764 493.413 323.705 493.368 323.656 493.312C285.288 449.369 262 391.919 262 329C262 190.929 373.929 79 512 79Z" fill="#fd8d33" fill-rule="nonzero" opacity="1" stroke="none"/>
<path d="M512 1.18957C330.292 1.18957 183 148.482 183 330.19C183 390.062 199.116 446.137 227.063 494.502L227.938 496.096L369.531 759.846L512 1025.19L654.469 759.846L796.063 496.096L796.938 494.502C824.884 446.137 841 390.062 841 330.19C841 148.482 693.708 1.18957 512 1.18957ZM512 80.1896C650.071 80.1896 762 192.118 762 330.19C762 393.108 738.712 450.559 700.344 494.502C700.295 494.557 700.236 494.603 700.188 494.658C697.433 497.807 694.625 500.902 691.719 503.908C691.606 504.025 691.488 504.136 691.375 504.252C688.39 507.328 685.327 510.333 682.188 513.252C678.991 516.225 675.724 519.104 672.375 521.908C662.391 530.268 651.75 537.887 640.531 544.627C640.251 544.795 639.969 544.96 639.688 545.127C636.383 547.095 633.026 548.966 629.625 550.783C628.698 551.279 627.747 551.736 626.813 552.221C623.953 553.703 621.079 555.16 618.156 556.533C617.081 557.039 615.989 557.511 614.906 558.002C612 559.317 609.089 560.609 606.125 561.815C605.245 562.173 604.353 562.497 603.469 562.846C600.309 564.089 597.128 565.291 593.906 566.408C592.827 566.783 591.742 567.142 590.656 567.502C587.848 568.432 585.008 569.294 582.156 570.127C580.67 570.562 579.185 571.001 577.688 571.408C575.245 572.072 572.784 572.692 570.313 573.283C568.299 573.765 566.283 574.226 564.25 574.658C562.137 575.108 560.007 575.513 557.875 575.908C555.856 576.283 553.848 576.676 551.813 577.002C548.873 577.473 545.911 577.853 542.938 578.221C541.635 578.382 540.34 578.58 539.031 578.721C535.738 579.075 532.424 579.34 529.094 579.565C527.903 579.645 526.726 579.751 525.531 579.815C521.053 580.053 516.538 580.189 512 580.19C507.462 580.19 502.947 580.053 498.469 579.815C497.273 579.751 496.097 579.645 494.906 579.565C491.576 579.34 488.262 579.075 484.969 578.721C483.66 578.58 482.365 578.382 481.063 578.221C478.089 577.854 475.127 577.473 472.188 577.002C470.152 576.676 468.144 576.284 466.125 575.908C463.993 575.513 461.863 575.108 459.75 574.658C457.717 574.225 455.702 573.765 453.688 573.283C451.216 572.692 448.755 572.072 446.313 571.408C444.815 571.001 443.33 570.562 441.844 570.127C438.992 569.295 436.152 568.432 433.344 567.502C432.258 567.142 431.173 566.783 430.094 566.408C426.872 565.291 423.691 564.089 420.531 562.846C419.647 562.497 418.754 562.173 417.875 561.815C414.911 560.609 412 559.317 409.094 558.002C408.01 557.511 406.919 557.039 405.844 556.533C402.921 555.16 400.047 553.703 397.188 552.221C396.253 551.736 395.302 551.28 394.375 550.783C390.974 548.966 387.618 547.095 384.313 545.127C384.032 544.96 383.748 544.795 383.469 544.627C372.25 537.888 361.609 530.268 351.625 521.908C348.276 519.104 345.009 516.225 341.813 513.252C338.674 510.333 335.61 507.328 332.625 504.252C332.512 504.136 332.394 504.025 332.281 503.908C329.375 500.902 326.567 497.807 323.813 494.658C323.764 494.603 323.705 494.557 323.656 494.502C285.288 450.559 262 393.108 262 330.19C262 192.118 373.929 80.1896 512 80.1896Z" fill="#ec0014" fill-rule="nonzero" opacity="1" stroke="none"/>
</g>
<g id="Layer-2">
<g opacity="1">
<path d="M463.124 186.934C451.17 185.843 439.91 192.697 435.39 203.816L412.758 259.487L428.909 260.962L445.006 221.042C448.988 211.167 458.973 205.07 469.576 206.038L579.346 216.059C590.453 217.074 599.409 225.584 600.989 236.624L606.794 277.202L624.882 278.854L612.699 219.963C610.272 208.235 600.461 199.473 588.534 198.384L463.124 186.934Z" fill="#000000" fill-rule="nonzero" opacity="1" stroke="none"/>
<path d="M409.812 259.218C400.175 258.338 391.649 265.438 390.769 275.075L383.726 352.212L636.642 375.303L643.693 298.068C644.568 288.485 637.509 280.007 627.926 279.132L409.812 259.218ZM423.155 268.765C433.245 269.687 440.816 277.179 440.057 285.491C439.298 293.803 430.497 299.789 420.407 298.868C410.317 297.947 402.758 290.467 403.517 282.155C404.276 273.843 413.065 267.844 423.155 268.765ZM612.519 286.054C622.609 286.975 630.167 294.466 629.408 302.778C628.649 311.091 619.86 317.078 609.771 316.157C599.681 315.236 592.108 307.754 592.867 299.442C593.626 291.13 602.429 285.133 612.519 286.054ZM448.258 310.422L580.745 322.518L577.863 354.083L445.376 341.987L448.258 310.422Z" fill="#000000" fill-rule="nonzero" opacity="1" stroke="none"/>
<path d="M382.574 364.835L380.195 390.889C379.381 399.799 385.945 407.681 394.855 408.494L416.128 410.436C425.038 411.25 432.92 404.687 433.734 395.777L436.112 369.723L382.574 364.835Z" fill="#000000" fill-rule="nonzero" opacity="1" stroke="none"/>
<path d="M581.951 383.038L579.572 409.092C578.759 418.002 585.322 425.884 594.232 426.697L615.505 428.64C624.415 429.453 632.297 422.89 633.111 413.98L635.489 387.926L581.951 383.038Z" fill="#000000" fill-rule="nonzero" opacity="1" stroke="none"/>
<path d="M317.781 430.113L317.781 471.211L706.219 471.211L706.219 430.113L645.278 430.113L635.489 458.328L578.099 458.328L564.364 430.113L317.781 430.113Z" fill="#000000" fill-rule="nonzero" opacity="1" stroke="none"/>
</g>
</g>
</svg>
