<?xml version="1.0" encoding="UTF-8" standalone="no"?>
<!DOCTYPE svg PUBLIC "-//W3C//DTD SVG 1.1//EN" "http://www.w3.org/Graphics/SVG/1.1/DTD/svg11.dtd">
<!-- Created with Vectornator (http://vectornator.io/) -->
<svg height="1024.0px" stroke-miterlimit="10" style="fill-rule:nonzero;clip-rule:evenodd;stroke-linecap:round;stroke-linejoin:round;" version="1.1" viewBox="0 0 1024 1024" width="1024.0px" xml:space="preserve" xmlns="http://www.w3.org/2000/svg" xmlns:xlink="http://www.w3.org/1999/xlink">
<defs/>
<g id="Layer-1">
<path d="M398.983 176.824C371.344 174.3 345.307 190.15 334.855 215.86L282.522 344.588L319.868 347.998L357.091 255.69C366.298 232.856 389.385 218.758 413.903 220.997L667.725 244.17C693.407 246.515 714.116 266.193 717.769 291.722L731.193 385.551L773.017 389.37L744.846 253.196C739.235 226.077 716.548 205.817 688.969 203.299L398.983 176.824Z" fill="#000000" fill-rule="nonzero" opacity="1" stroke="none"/>
<path d="M275.71 343.966C253.426 341.931 233.712 358.347 231.677 380.631L215.392 558.996L800.21 612.389L816.515 433.798C818.538 411.639 802.215 392.035 780.056 390.012L275.71 343.966ZM306.564 366.042C329.895 368.172 347.402 385.496 345.647 404.716C343.892 423.937 323.54 437.778 300.209 435.648C276.878 433.518 259.399 416.222 261.154 397.002C262.909 377.782 283.233 363.912 306.564 366.042ZM744.43 406.019C767.761 408.149 785.237 425.47 783.482 444.69C781.727 463.911 761.406 477.755 738.075 475.625C714.744 473.495 697.235 456.196 698.99 436.976C700.744 417.756 721.099 403.889 744.43 406.019ZM364.609 462.364L670.96 490.333L664.296 563.323L357.945 535.353L364.609 462.364Z" fill="#000000" fill-rule="nonzero" opacity="1" stroke="none"/>
<path d="M212.728 588.183L207.227 648.429C205.346 669.03 220.523 687.256 241.125 689.137L290.316 693.628C310.918 695.509 329.144 680.333 331.025 659.731L336.525 599.486L212.728 588.183Z" fill="#000000" fill-rule="nonzero" opacity="1" stroke="none"/>
<path d="M673.748 630.274L668.247 690.519C666.366 711.121 681.543 729.347 702.145 731.228L751.336 735.719C771.938 737.6 790.164 722.424 792.045 701.822L797.545 641.577L673.748 630.274Z" fill="#000000" fill-rule="nonzero" opacity="1" stroke="none"/>
<path d="M62.9063 739.125L62.9063 834.156L961.094 834.156L961.094 739.125L820.178 739.125L797.545 804.367L664.842 804.367L633.081 739.125L62.9063 739.125Z" fill="#000000" fill-rule="nonzero" opacity="1" stroke="none"/>
</g>
</svg>
