<?xml version="1.0" encoding="UTF-8" standalone="no"?>
<!DOCTYPE svg PUBLIC "-//W3C//DTD SVG 1.1//EN" "http://www.w3.org/Graphics/SVG/1.1/DTD/svg11.dtd">
<!-- Created with Vectornator (http://vectornator.io/) -->
<svg height="600.0pt" stroke-miterlimit="10" style="fill-rule:nonzero;clip-rule:evenodd;stroke-linecap:round;stroke-linejoin:round;" version="1.1" viewBox="0 0 1920 600" width="1920.0pt" xml:space="preserve" xmlns="http://www.w3.org/2000/svg" xmlns:xlink="http://www.w3.org/1999/xlink">
<defs/>
<g id="Layer-2" visibility="hidden">
<path d="M565.039 183.689C509.912 183.689 466.957 228.353 466.957 284.477C466.957 340.602 511.64 386.129 566.766 386.129C587.484 386.129 606.739 379.685 622.689 368.679L615.951 336.139C603.683 345.517 588.052 351.286 570.395 351.286C529.945 351.286 505.66 322.48 505.66 284.247C505.66 246.014 529.772 216.172 570.222 216.172C587.686 216.172 603.184 221.99 615.433 231.377L620.04 196.014C619.696 195.793 619.408 195.482 619.061 195.266C603.893 185.795 584.136 183.689 565.039 183.689Z" fill="#193052" fill-rule="nonzero" opacity="1" stroke="#ffffff" stroke-linecap="butt" stroke-linejoin="round" stroke-width="27.6447"/>
<path d="M658.743 181.098C648.062 181.098 639.391 189.819 639.391 200.564C639.391 211.31 648.062 220.031 658.743 220.031C669.424 220.031 678.094 211.31 678.094 200.564C678.094 189.819 669.424 181.098 658.743 181.098ZM642.041 249.806L642.041 380.255L675.848 380.255L675.848 249.806L642.041 249.806Z" fill="#193052" fill-rule="nonzero" opacity="1" stroke="#ffffff" stroke-linecap="butt" stroke-linejoin="round" stroke-width="27.6447"/>
<path d="M706.488 210.985L739.055 210.77L739.111 249.918L770.038 249.524L769.861 276.992L739.767 276.843L739.94 340.304L739.94 340.304C739.715 351.83 747.175 359.614 763.5 354.179L774.232 350.913L774.32 378.96L769.392 380.574C761.774 382.55 754.281 383.942 745.889 384.254L740.513 384.209C722.327 384.058 707.462 369.658 706.732 351.486L706.732 351.486L705.723 276.817L688.287 276.62L688.099 250.45L706.401 250.458L706.488 210.985Z" fill="#193052" fill-rule="nonzero" opacity="1" stroke="#ffffff" stroke-linecap="butt" stroke-linejoin="round" stroke-width="27.6447"/>
<path d="M776.687 249.589L810.437 249.589L840.212 335.922L868.564 249.748L902.71 249.589L834.149 436.972L800.862 436.752L823.107 375.582L776.687 249.589Z" fill="#193052" fill-rule="nonzero" opacity="1" stroke="#ffffff" stroke-linecap="butt" stroke-linejoin="round" stroke-width="27.6447"/>
<path d="M923.095 189.161L923.095 189.218L921.713 189.218L921.713 381.407L954.887 381.407L954.887 314.656L973.029 314.656L1018.35 381.349L1059.94 381.349L1007.76 309.646C1030.25 300.111 1046.06 277.902 1046.06 251.937C1046.06 217.281 1017.94 189.161 983.28 189.161L923.095 189.161ZM955.636 218.936L979.018 218.936C997.678 218.936 1012.83 234.084 1012.83 252.744C1012.83 271.403 997.678 286.551 979.018 286.551L955.636 286.551L955.636 218.936Z" fill="#2b7765" fill-rule="nonzero" opacity="1" stroke="#ffffff" stroke-linecap="butt" stroke-linejoin="round" stroke-width="27.6447"/>
<path d="M1113.1 249.173C1081.79 249.173 1054.82 276.368 1055.16 317.709C1055.32 337.952 1062.72 355.431 1073.99 366.72C1085.73 378.486 1101.67 383.653 1117.65 383.653C1130.74 383.653 1149.38 380.984 1161.13 372.71L1157.04 346.333C1154.02 349.514 1139.11 356.651 1125.71 357.322C1113.37 357.939 1102.45 352.314 1099.8 350.128C1092.74 344.277 1088.77 334.295 1088.79 324.39L1165.74 324.39C1165.86 312.067 1166.42 297.52 1165.16 290.985C1163.71 283.491 1160.39 276.155 1158.54 273.592C1157 271.479 1144.4 249.173 1113.1 249.173ZM1113.44 272.786C1127.14 272.786 1138.26 283.907 1138.26 297.609L1138.26 303.31L1088.68 303.31L1088.68 297.609C1088.68 283.907 1099.74 272.786 1113.44 272.786Z" fill="#2b7765" fill-rule="nonzero" opacity="1" stroke="#ffffff" stroke-linecap="butt" stroke-linejoin="round" stroke-width="27.6447"/>
<path d="M1253.28 249.288C1239.56 249.288 1227.1 254.74 1216.99 263.514L1216.99 251.534L1184.22 251.534L1184.22 437.733L1216.99 437.733L1216.99 372.192C1226.12 379.758 1237.4 384.229 1250.11 384.229C1283.17 384.229 1306.95 354.518 1306.95 317.133C1306.95 279.747 1286.33 249.288 1253.28 249.288ZM1245.79 276.933C1262.78 277.046 1272.05 295.177 1272.05 317.594C1272.05 340.01 1261.7 356.872 1245.44 356.872C1238.11 356.872 1232.63 358.415 1216.99 347.484L1216.99 290.179C1224.67 281.724 1235.85 276.866 1245.79 276.933Z" fill="#2b7765" fill-rule="nonzero" opacity="1" stroke="#ffffff" stroke-linecap="butt" stroke-linejoin="round" stroke-width="27.6447"/>
<path d="M1381.31 248.712C1345.87 248.712 1317.15 279.17 1317.15 316.73C1317.15 354.289 1345.35 384.171 1380.79 384.171C1416.22 384.171 1445.47 354.289 1445.47 316.73C1445.47 279.17 1416.74 248.712 1381.31 248.712ZM1381.94 276.414C1399.81 276.414 1411.83 294.644 1411.83 317.594C1411.83 340.543 1399.75 356.527 1381.88 356.527C1364.02 356.527 1350.55 340.485 1350.55 317.536C1350.55 294.587 1364.07 276.414 1381.94 276.414Z" fill="#2b7765" fill-rule="nonzero" opacity="1" stroke="#ffffff" stroke-linecap="butt" stroke-linejoin="round" stroke-width="27.6447"/>
<path d="M1536.17 249.749C1521.83 247.957 1507.75 254.712 1500.18 267.027L1495.11 275.228C1494.97 275.466 1494.71 275.615 1494.43 275.627L1494.43 275.627C1493.96 275.648 1493.56 275.266 1493.56 274.786L1493.56 253.356C1493.56 252.89 1493.18 252.513 1492.71 252.513L1461.8 252.513C1461.34 252.513 1460.96 252.89 1460.96 253.356L1460.96 380.968C1460.96 381.433 1461.34 381.81 1461.8 381.81L1492.72 381.81C1493.18 381.81 1493.56 381.438 1493.56 380.976L1494.16 317.617C1494.22 311.468 1495.94 305.449 1499.14 300.2L1499.14 300.2C1505.59 288.578 1521.5 280.201 1536.35 282.634L1536.17 249.749Z" fill="#2b7765" fill-rule="nonzero" opacity="1" stroke="#ffffff" stroke-linecap="butt" stroke-linejoin="round" stroke-width="27.6447"/>
<path d="M1563.18 213.159L1595.74 212.945L1595.8 252.093L1626.73 251.699L1626.55 279.166L1596.45 279.018L1596.63 342.479L1596.63 342.479C1596.4 354.005 1603.86 361.789 1620.19 356.354L1630.92 353.088L1631.01 381.135L1626.08 382.748C1618.46 384.725 1610.97 386.117 1602.58 386.429L1597.2 386.384C1579.01 386.232 1564.15 371.832 1563.42 353.66L1563.42 353.66L1562.41 278.991L1544.97 278.794L1544.79 252.625L1563.09 252.633L1563.18 213.159Z" fill="#2b7765" fill-rule="nonzero" opacity="1" stroke="#ffffff" stroke-linecap="butt" stroke-linejoin="round" stroke-width="27.6447"/>
<path d="M1648.34 364.164C1648.34 353.418 1657 344.708 1667.68 344.708C1678.36 344.708 1687.02 353.418 1687.02 364.164C1687.02 374.909 1678.36 383.62 1667.68 383.62C1657 383.62 1648.34 374.909 1648.34 364.164Z" fill="#2b7765" fill-rule="nonzero" opacity="1" stroke="#ffffff" stroke-linecap="butt" stroke-linejoin="round" stroke-width="27.6447"/>
<path d="M1724.76 182.921C1714.08 182.921 1705.41 191.642 1705.41 202.388C1705.41 213.133 1714.08 221.854 1724.76 221.854C1735.45 221.854 1744.12 213.133 1744.12 202.388C1744.12 191.642 1735.45 182.921 1724.76 182.921ZM1708.06 251.63L1708.06 382.078L1741.87 382.078L1741.87 251.63L1708.06 251.63Z" fill="#2b7765" fill-rule="nonzero" opacity="1" stroke="#ffffff" stroke-linecap="butt" stroke-linejoin="round" stroke-width="27.6447"/>
<path d="M1821.05 248.551C1785.62 248.551 1756.89 279.009 1756.89 316.568C1756.89 354.128 1785.1 384.01 1820.53 384.01C1855.97 384.01 1885.21 354.128 1885.21 316.568C1885.21 279.009 1856.49 248.551 1821.05 248.551ZM1821.68 276.253C1839.55 276.253 1851.58 294.483 1851.58 317.432C1851.58 340.381 1839.49 356.365 1821.63 356.365C1803.76 356.365 1790.3 340.324 1790.3 317.375C1790.3 294.425 1803.82 276.253 1821.68 276.253Z" fill="#2b7765" fill-rule="nonzero" opacity="1" stroke="#ffffff" stroke-linecap="butt" stroke-linejoin="round" stroke-width="27.6447"/>
<g opacity="1">
<path d="M218.369 385.923C217.848 385.403 218.113 384.511 218.834 384.361L259.66 375.842C260.406 375.686 261.184 375.835 261.82 376.255L314.533 411.083C315.217 411.535 315.095 412.573 314.325 412.855L265.441 430.746C264.483 431.097 263.409 430.86 262.686 430.14L218.369 385.923Z" fill="#2b7765" fill-rule="nonzero" opacity="1" stroke="#ffffff" stroke-linecap="butt" stroke-linejoin="round" stroke-width="27.6447"/>
<path d="M63.6379 353.723C63.3702 353.288 63.6594 352.726 64.1681 352.691L125.927 348.43C137.734 347.814 151.037 347.212 158.676 346.744L180.866 345.662C195.825 344.974 203.427 344.674 221.784 344.491L240.703 344.297C250.415 344.451 255.256 344.509 263.429 344.684L293.922 346.011C317.138 347.483 325.389 348.093 343.697 349.319L385.236 353.063C385.851 353.118 386.206 353.788 385.906 354.328L365.139 391.704C364.378 393.074 363.119 394.099 361.624 394.568L336.935 402.309C335.842 402.652 334.652 402.491 333.689 401.871L265.547 357.964C263.622 356.724 261.272 356.332 259.049 356.882L92.4069 398.077C91.6775 398.257 90.9157 397.946 90.521 397.307L63.6379 353.723Z" fill="#2b7765" fill-rule="nonzero" opacity="1" stroke="#ffffff" stroke-linecap="butt" stroke-linejoin="round" stroke-width="27.6447"/>
<path d="M280.818 221.411L321.191 221.258L321.459 239.355L348.045 239.392L348.393 324.636L368.802 325.692L363.638 333.698L343.255 332.238L305.737 329.947L280.914 321.395L280.818 221.411Z" fill="#2f7767" fill-rule="nonzero" opacity="1" stroke="#ffffff" stroke-linecap="butt" stroke-linejoin="round" stroke-width="27.6447"/>
<path d="M232.015 121.918L224.149 122.03L224.181 153.962L207.676 152.611L207.837 178.703L187.375 183.707L187.568 321.231L177.659 321.263L176.918 250.627L153.561 238.192L153.143 227.543L126.552 227.446L126.712 237.323L117.881 236.889L117.398 293.803L91.8528 293.98L91.9817 331.092L87.9761 331.044L88.346 335.339L109.58 333.569C123.957 332.497 124.936 332.499 138.488 331.768L157.47 330.818C166.121 330.508 169.168 330.219 177.144 330.062L235.86 329.145L281.45 329.628L306.448 329.998L280.933 321.381L269.819 321.408L269.095 163.759L249.952 167.91L250.016 150.263L232.61 154.928L232.015 121.918ZM210.057 194.774L226.224 194.774L226.224 222.282L210.057 222.282L210.057 194.774ZM209.349 240.605L226.707 240.605L226.707 265.008L209.349 265.008L209.349 240.605ZM133.678 251.72L149.732 251.72L149.732 270.687L133.678 270.687L133.678 251.72ZM133.389 279.325L150.151 279.325L150.151 299.385L133.389 299.385L133.389 279.325Z" fill="#193052" fill-rule="nonzero" opacity="1" stroke="#ffffff" stroke-linecap="butt" stroke-linejoin="round" stroke-width="27.6447"/>
<path d="M223.103 66.3065C152.17 66.3065 89.2849 103.245 58.0549 160.847C35.9124 201.688 32.3137 226.624 36.0966 271.893C37.7387 291.543 46.0306 316.192 56.1086 338.604C56.3641 338.569 58.2743 338.312 61.0616 338.043C67.2342 337.448 70.0309 337.141 75.5721 336.606C85.7565 335.624 92.8128 334.925 92.7922 334.907C92.5109 334.653 89.8254 331.879 88.5391 329.998C73.6971 308.296 66.3623 282.17 65.6962 255.469C64.7503 217.572 78.2779 182.216 103.483 152.45C132.464 118.227 177.177 97.6915 223.94 97.6915C281.473 97.6915 336.56 131.873 364.279 180.602C378.685 205.926 384.887 238.502 383.101 265.764C382.373 276.874 379.111 292.507 374.736 305.723C370.884 317.355 365.992 326.997 363.024 333.569C362.977 333.674 364.261 333.732 380.745 335.409C394.814 336.84 395.425 336.981 395.696 336.996C407.199 310.357 411.665 291.511 413.538 270.357C416.534 236.528 409.876 201.174 396.131 172.542C365.221 108.16 299.461 66.3065 223.103 66.3065ZM194.485 392.559C193.698 392.542 192.906 392.631 192.12 392.816L102.631 413.793C112.516 426.651 123.739 440.321 135.528 453.414C169.582 491.237 218.136 533.165 225.179 533.685C232.615 534.238 263.886 508.148 295.445 475.517C313.706 456.635 335.099 435.568 349.721 415.015L268.03 448.552C262.717 450.733 256.616 449.551 252.502 445.543L200.872 395.245C199.138 393.556 196.848 392.609 194.485 392.559Z" fill="#193052" fill-rule="nonzero" opacity="1" stroke="#ffffff" stroke-linecap="butt" stroke-linejoin="round" stroke-width="27.6447"/>
</g>
</g>
<g id="Layer-1">
<path d="M565.039 183.689C509.912 183.689 466.957 228.353 466.957 284.477C466.957 340.602 511.64 386.129 566.766 386.129C587.484 386.129 606.739 379.685 622.689 368.679L615.951 336.139C603.683 345.517 588.052 351.286 570.395 351.286C529.945 351.286 505.66 322.48 505.66 284.247C505.66 246.014 529.772 216.172 570.222 216.172C587.686 216.172 603.184 221.99 615.433 231.377L620.04 196.014C619.696 195.793 619.408 195.482 619.061 195.266C603.893 185.795 584.136 183.689 565.039 183.689Z" fill="#193052" fill-rule="nonzero" opacity="1" stroke="none"/>
<path d="M658.743 181.098C648.062 181.098 639.391 189.819 639.391 200.564C639.391 211.31 648.062 220.031 658.743 220.031C669.424 220.031 678.094 211.31 678.094 200.564C678.094 189.819 669.424 181.098 658.743 181.098ZM642.041 249.806L642.041 380.255L675.848 380.255L675.848 249.806L642.041 249.806Z" fill="#193052" fill-rule="nonzero" opacity="1" stroke="none"/>
<path d="M706.488 210.985L739.055 210.77L739.111 249.918L770.038 249.524L769.861 276.992L739.767 276.843L739.94 340.304L739.94 340.304C739.715 351.83 747.175 359.614 763.5 354.179L774.232 350.913L774.32 378.96L769.392 380.574C761.774 382.55 754.281 383.942 745.889 384.254L740.513 384.209C722.327 384.058 707.462 369.658 706.732 351.486L706.732 351.486L705.723 276.817L688.287 276.62L688.099 250.45L706.401 250.458L706.488 210.985Z" fill="#193052" fill-rule="nonzero" opacity="1" stroke="none"/>
<path d="M776.687 249.589L810.437 249.589L840.212 335.922L868.564 249.748L902.71 249.589L834.149 436.972L800.862 436.752L823.107 375.582L776.687 249.589Z" fill="#193052" fill-rule="nonzero" opacity="1" stroke="none"/>
<path d="M923.095 189.161L923.095 189.218L921.713 189.218L921.713 381.407L954.887 381.407L954.887 314.656L973.029 314.656L1018.35 381.349L1059.94 381.349L1007.76 309.646C1030.25 300.111 1046.06 277.902 1046.06 251.937C1046.06 217.281 1017.94 189.161 983.28 189.161L923.095 189.161ZM955.636 218.936L979.018 218.936C997.678 218.936 1012.83 234.084 1012.83 252.744C1012.83 271.403 997.678 286.551 979.018 286.551L955.636 286.551L955.636 218.936Z" fill="#2b7765" fill-rule="nonzero" opacity="1" stroke="none"/>
<path d="M1113.1 249.173C1081.79 249.173 1054.82 276.368 1055.16 317.709C1055.32 337.952 1062.72 355.431 1073.99 366.72C1085.73 378.486 1101.67 383.653 1117.65 383.653C1130.74 383.653 1149.38 380.984 1161.13 372.71L1157.04 346.333C1154.02 349.514 1139.11 356.651 1125.71 357.322C1113.37 357.939 1102.45 352.314 1099.8 350.128C1092.74 344.277 1088.77 334.295 1088.79 324.39L1165.74 324.39C1165.86 312.067 1166.42 297.52 1165.16 290.985C1163.71 283.491 1160.39 276.155 1158.54 273.592C1157 271.479 1144.4 249.173 1113.1 249.173ZM1113.44 272.786C1127.14 272.786 1138.26 283.907 1138.26 297.609L1138.26 303.31L1088.68 303.31L1088.68 297.609C1088.68 283.907 1099.74 272.786 1113.44 272.786Z" fill="#2b7765" fill-rule="nonzero" opacity="1" stroke="none"/>
<path d="M1253.28 249.288C1239.56 249.288 1227.1 254.74 1216.99 263.514L1216.99 251.534L1184.22 251.534L1184.22 437.733L1216.99 437.733L1216.99 372.192C1226.12 379.758 1237.4 384.229 1250.11 384.229C1283.17 384.229 1306.95 354.518 1306.95 317.133C1306.95 279.747 1286.33 249.288 1253.28 249.288ZM1245.79 276.933C1262.78 277.046 1272.05 295.177 1272.05 317.594C1272.05 340.01 1261.7 356.872 1245.44 356.872C1238.11 356.872 1232.63 358.415 1216.99 347.484L1216.99 290.179C1224.67 281.724 1235.85 276.866 1245.79 276.933Z" fill="#2b7765" fill-rule="nonzero" opacity="1" stroke="none"/>
<path d="M1381.31 248.712C1345.87 248.712 1317.15 279.17 1317.15 316.73C1317.15 354.289 1345.35 384.171 1380.79 384.171C1416.22 384.171 1445.47 354.289 1445.47 316.73C1445.47 279.17 1416.74 248.712 1381.31 248.712ZM1381.94 276.414C1399.81 276.414 1411.83 294.644 1411.83 317.594C1411.83 340.543 1399.75 356.527 1381.88 356.527C1364.02 356.527 1350.55 340.485 1350.55 317.536C1350.55 294.587 1364.07 276.414 1381.94 276.414Z" fill="#2b7765" fill-rule="nonzero" opacity="1" stroke="none"/>
<path d="M1536.17 249.749C1521.83 247.957 1507.75 254.712 1500.18 267.027L1495.11 275.228C1494.97 275.466 1494.71 275.615 1494.43 275.627L1494.43 275.627C1493.96 275.648 1493.56 275.266 1493.56 274.786L1493.56 253.356C1493.56 252.89 1493.18 252.513 1492.71 252.513L1461.8 252.513C1461.34 252.513 1460.96 252.89 1460.96 253.356L1460.96 380.968C1460.96 381.433 1461.34 381.81 1461.8 381.81L1492.72 381.81C1493.18 381.81 1493.56 381.438 1493.56 380.976L1494.16 317.617C1494.22 311.468 1495.94 305.449 1499.14 300.2L1499.14 300.2C1505.59 288.578 1521.5 280.201 1536.35 282.634L1536.17 249.749Z" fill="#2b7765" fill-rule="nonzero" opacity="1" stroke="none"/>
<path d="M1563.18 213.159L1595.74 212.945L1595.8 252.093L1626.73 251.699L1626.55 279.166L1596.45 279.018L1596.63 342.479L1596.63 342.479C1596.4 354.005 1603.86 361.789 1620.19 356.354L1630.92 353.088L1631.01 381.135L1626.08 382.748C1618.46 384.725 1610.97 386.117 1602.58 386.429L1597.2 386.384C1579.01 386.232 1564.15 371.832 1563.42 353.66L1563.42 353.66L1562.41 278.991L1544.97 278.794L1544.79 252.625L1563.09 252.633L1563.18 213.159Z" fill="#2b7765" fill-rule="nonzero" opacity="1" stroke="none"/>
<path d="M1648.34 364.164C1648.34 353.418 1657 344.708 1667.68 344.708C1678.36 344.708 1687.02 353.418 1687.02 364.164C1687.02 374.909 1678.36 383.62 1667.68 383.62C1657 383.62 1648.34 374.909 1648.34 364.164Z" fill="#2b7765" fill-rule="nonzero" opacity="1" stroke="none"/>
<path d="M1724.76 182.921C1714.08 182.921 1705.41 191.642 1705.41 202.388C1705.41 213.133 1714.08 221.854 1724.76 221.854C1735.45 221.854 1744.12 213.133 1744.12 202.388C1744.12 191.642 1735.45 182.921 1724.76 182.921ZM1708.06 251.63L1708.06 382.078L1741.87 382.078L1741.87 251.63L1708.06 251.63Z" fill="#2b7765" fill-rule="nonzero" opacity="1" stroke="none"/>
<path d="M1821.05 248.551C1785.62 248.551 1756.89 279.009 1756.89 316.568C1756.89 354.128 1785.1 384.01 1820.53 384.01C1855.97 384.01 1885.21 354.128 1885.21 316.568C1885.21 279.009 1856.49 248.551 1821.05 248.551ZM1821.68 276.253C1839.55 276.253 1851.58 294.483 1851.58 317.432C1851.58 340.381 1839.49 356.365 1821.63 356.365C1803.76 356.365 1790.3 340.324 1790.3 317.375C1790.3 294.425 1803.82 276.253 1821.68 276.253Z" fill="#2b7765" fill-rule="nonzero" opacity="1" stroke="none"/>
<g opacity="0">
<path d="M609.632 448.92L637.071 448.92L637.071 459.552L627.929 459.615L628.059 510.896L619.43 510.877L619.59 459.761L609.632 459.632L609.632 448.92Z" fill="#193052" fill-rule="nonzero" opacity="1" stroke="none"/>
<path d="M656.437 461.635C653.25 460.978 650.273 462.741 648.59 467.25L647.393 472.463C647.377 472.533 647.317 472.584 647.246 472.589L647.246 472.589C647.152 472.596 647.072 472.521 647.072 472.427L647.072 464.45C647.072 464.27 646.925 464.124 646.745 464.124L640.158 464.124C639.977 464.124 639.831 464.27 639.831 464.45L639.831 511.138C639.831 511.319 639.979 511.466 640.16 511.464L647.788 511.408C647.967 511.407 648.112 511.261 648.112 511.082L648.102 479.635C648.101 477.425 649.147 475.345 650.921 474.028L650.921 474.028C650.881 473.959 653.072 472.626 656.37 473.517L656.437 461.635Z" fill="#193052" fill-rule="nonzero" opacity="1" stroke="none"/>
<path d="M672.911 461.692C667.8 461.826 663.714 466.025 663.696 471.137L663.638 477.933L671.01 477.818L671.034 472.755C671.225 470.601 673.236 469.524 675.005 469.569C676.736 469.614 678.22 470.738 678.958 472.462L679.02 472.632C679.131 472.939 679.188 473.262 679.189 473.587L679.191 478.58C679.192 479.603 678.663 480.554 677.794 481.093L676.481 481.907C676.481 481.907 671.842 483.886 667.267 486.687L667.267 486.687C664.264 488.614 662.415 491.907 662.334 495.474L662.155 503.352C662.145 503.76 662.161 504.169 662.202 504.575L662.227 504.826C662.618 508.738 665.349 512.019 669.124 513.115L669.124 513.115C669.124 513.115 672.361 513.683 674.425 512.86C676.861 511.887 679.006 509.485 679.378 507.546L679.476 507.536L679.519 511.76L686.272 511.683L686.172 472.349C686.157 466.419 681.319 461.635 675.389 461.686L674.696 461.692L672.911 461.692ZM679.016 486.629L679.016 497.803C679.016 500.82 677.593 503.664 675.214 505.52C674.083 506.403 672.515 506.382 671.413 505.462L671.3 505.37C669.926 504.249 669.157 502.548 669.225 500.777L669.398 496.25C669.452 494.838 670.046 493.499 671.058 492.512L671.09 492.481C672.668 490.943 674.4 489.571 676.258 488.387L679.016 486.629Z" fill="#193052" fill-rule="nonzero" opacity="1" stroke="none"/>
<path d="M696.146 463.347L704.051 463.347L704.088 468.581L704.327 467.902C707.475 458.929 720.752 461.213 720.721 470.722L720.721 470.722L721.183 511.782L713.086 511.762L712.667 474.656C712.661 474.137 712.595 473.62 712.472 473.115L712.421 472.907C711.382 468.666 705.299 468.826 704.484 473.115L704.444 473.328C704.361 473.762 704.321 474.203 704.322 474.645L704.456 511.782L696.146 511.782L696.146 463.347Z" fill="#193052" fill-rule="nonzero" opacity="1" stroke="none"/>
<path d="M730.407 472.296C731.017 466.538 735.835 462.144 741.625 462.066L741.625 462.066L741.849 462.044C743.601 461.874 745.365 462.198 746.942 462.979L747.395 463.203C748.388 463.695 749.253 464.411 749.921 465.296L749.982 465.378C751.485 467.369 752.301 469.795 752.306 472.29L752.313 475.559L745.592 475.665L745.483 472.699C745.454 471.899 745.1 471.145 744.502 470.612L744.206 470.347C742.046 468.418 738.612 469.414 737.821 472.2L737.777 472.355C737.777 472.355 737.288 476.968 738.045 478.909C738.803 480.851 739.541 481.953 742.065 483.132C744.588 484.31 746.563 485.789 746.563 485.789C746.563 485.789 749.664 487.882 751.103 490.151C752.2 491.879 752.801 493.241 753.152 494.532C753.361 495.301 753.438 496.548 753.438 496.548L753.553 499.886C753.785 506.622 748.755 512.385 742.05 513.066L742.05 513.066L740.649 513.085C736.068 513.15 731.926 510.372 730.246 506.11L730.235 506.083C729.993 505.47 729.857 504.82 729.833 504.162L729.571 496.949L737.05 496.978L737.122 501.626C737.135 502.459 737.389 503.271 737.851 503.963L737.865 503.983C739.551 506.508 743.15 506.801 745.223 504.583L745.223 504.583C745.714 504.058 746.037 503.399 746.15 502.689L746.15 502.689C746.385 501.219 746.37 499.72 746.105 498.255L746.061 498.013C745.759 496.343 744.78 494.873 743.355 493.95L740.637 492.189C738.681 490.923 736.831 489.5 735.105 487.935L733.772 486.727C732.906 485.942 732.206 484.992 731.714 483.932L731.714 483.932C730.696 481.741 730.176 479.352 730.193 476.936L730.204 475.274C730.209 474.522 730.251 473.771 730.33 473.022L730.407 472.296Z" fill="#193052" fill-rule="nonzero" opacity="1" stroke="none"/>
<path d="M775.081 461.98C773.227 462.049 771.175 464.005 769.206 466.702L769.206 463.535L759.531 463.535L759.531 526.369L769.206 526.369L769.206 508.515C771.451 511.174 772.175 512.915 775.484 512.892C777.687 512.877 781.274 511.356 783.432 506.384C785.318 502.038 785.692 494.717 785.692 487.515C785.692 479.699 785.134 471.188 782.798 466.76C780.694 462.769 777.401 461.893 775.081 461.98ZM773.323 469.779C774.982 469.852 776.583 471.453 777.327 474.132C778.239 477.413 778.563 482.115 778.594 487.724C778.612 491.011 778.588 497.016 777.557 500.394C776.527 503.77 775.257 504.428 773.584 504.483C771.678 504.546 770.105 503.483 769.206 501.546L769.202 473.431C769.527 471.001 770.954 469.674 773.323 469.779Z" fill="#193052" fill-rule="nonzero" opacity="1" stroke="none"/>
<path d="M804.806 461.63C799.696 461.764 795.609 465.963 795.591 471.075L795.533 477.871L802.905 477.756L802.929 472.693C803.121 470.539 805.131 469.462 806.9 469.507C808.631 469.552 810.115 470.676 810.853 472.4L810.915 472.57C811.027 472.877 811.084 473.2 811.084 473.525L811.086 478.518C811.087 479.541 810.558 480.492 809.689 481.031L808.377 481.845C808.377 481.845 803.737 483.824 799.162 486.625L799.162 486.625C796.159 488.552 794.31 491.845 794.229 495.412L794.05 503.29C794.041 503.698 794.056 504.107 794.097 504.513L794.122 504.764C794.514 508.676 797.244 511.957 801.02 513.053L801.02 513.053C801.02 513.053 804.256 513.621 806.32 512.798C808.756 511.825 810.901 509.423 811.274 507.484L811.371 507.474L811.414 511.698L818.167 511.621L818.067 472.287C818.052 466.358 813.214 461.573 807.284 461.624L806.591 461.63L804.806 461.63ZM810.911 486.568L810.911 497.741C810.911 500.758 809.488 503.602 807.11 505.458C805.978 506.341 804.41 506.32 803.308 505.4L803.195 505.308C801.821 504.187 801.053 502.486 801.12 500.715L801.293 496.188C801.347 494.776 801.941 493.437 802.954 492.45L802.986 492.419C804.563 490.881 806.295 489.509 808.153 488.325L810.911 486.568Z" fill="#193052" fill-rule="nonzero" opacity="1" stroke="none"/>
<path d="M843.038 462.026C839.851 461.37 836.874 463.132 835.191 467.641L833.994 472.854C833.978 472.924 833.918 472.975 833.847 472.98L833.847 472.98C833.753 472.987 833.673 472.912 833.673 472.818L833.673 464.841C833.673 464.661 833.526 464.515 833.346 464.515L826.759 464.515C826.578 464.515 826.432 464.661 826.432 464.841L826.432 511.529C826.432 511.71 826.58 511.857 826.761 511.855L834.389 511.799C834.568 511.798 834.713 511.652 834.713 511.473L834.703 480.026C834.702 477.816 835.748 475.736 837.522 474.419L837.522 474.419C837.482 474.35 839.673 473.017 842.971 473.908L843.038 462.026Z" fill="#193052" fill-rule="nonzero" opacity="1" stroke="none"/>
<path d="M862.047 461.864C858.395 461.864 853.579 462.821 851.203 467.598C848.871 472.287 848.643 473.46 848.858 487.205C849.113 503.589 850.315 505.789 850.689 506.596C850.863 506.969 852.135 509.48 854.103 510.88C856.504 512.588 859.916 513.18 861.931 513.18C865.015 513.18 868.217 511.53 870.455 507.997C872.231 505.192 872.859 501.899 872.874 497.054L865.611 497.129L865.614 501.725C865.616 504.234 863.583 506.269 861.074 506.269L861.009 506.269C858.555 506.269 856.545 504.318 856.471 501.864L856.284 495.642L856.172 488.703L873.068 488.602C873.068 488.602 873.143 475.464 872.817 473.21C872.359 470.056 871.664 467.597 870.125 465.807C867.609 462.881 865.009 461.864 862.047 461.864ZM861.183 470.849C863.909 470.849 866.136 473.076 866.136 475.802L866.136 482.425L856.23 482.425L856.23 475.802C856.23 473.082 858.456 470.849 861.183 470.849Z" fill="#193052" fill-rule="nonzero" opacity="1" stroke="none"/>
<path d="M882.342 463.42L890.246 463.42L890.284 468.655L890.522 467.975C893.671 459.003 906.948 461.287 906.917 470.795L906.917 470.795L907.379 511.855L899.281 511.836L898.862 474.729C898.856 474.21 898.791 473.693 898.667 473.188L898.616 472.98C897.578 468.739 891.495 468.899 890.68 473.188L890.639 473.402C890.557 473.836 890.516 474.277 890.518 474.718L890.652 511.855L882.342 511.855L882.342 463.42Z" fill="#193052" fill-rule="nonzero" opacity="1" stroke="none"/>
<path d="M918.56 463.764L918.659 450.931L925.531 450.931L925.545 463.963L931.068 463.989L931.068 472.404L925.585 472.441L925.667 501.533C925.668 501.882 925.709 502.23 925.788 502.569L925.863 502.886C926.059 503.722 926.815 504.305 927.673 504.282L929.841 504.222L929.863 511.855L923.872 511.855C921.028 511.855 918.72 509.555 918.711 506.711L918.71 506.581L918.703 472.184L913.13 472.206L913.13 463.809L918.56 463.764Z" fill="#193052" fill-rule="nonzero" opacity="1" stroke="none"/>
<path d="M956.615 448.906L956.615 511.855L964.102 511.855L964.044 485.074L971.416 485.074C973.699 485.075 975.619 486.83 975.793 489.106C975.801 489.207 975.792 489.293 975.793 489.394L975.966 511.855L982.82 511.855L982.532 487.148C982.648 483.995 980.212 481.345 977.06 481.216L976.715 481.158L978.673 480.179C980.29 479.356 981.476 477.855 981.898 476.09C982.195 474.847 982.351 473.624 982.359 472.346L982.416 457.315C982.295 452.697 978.569 448.962 973.95 448.906L973.777 448.906L956.615 448.906ZM963.876 456.081L972.169 456.081L972.279 456.082C974.062 456.098 975.507 457.531 975.54 459.313L975.678 466.933L975.567 474.056C975.538 475.893 974.04 477.366 972.203 477.364L963.987 477.357L963.876 456.081Z" fill="#193052" fill-rule="nonzero" opacity="1" stroke="none"/>
<path d="M1005.1 461.768C1001.45 461.768 996.63 462.725 994.254 467.502C991.922 472.191 991.694 473.364 991.909 487.109C992.164 503.493 993.366 505.693 993.741 506.5C993.914 506.873 995.186 509.384 997.154 510.784C999.556 512.492 1002.97 513.084 1004.98 513.084C1008.07 513.084 1011.27 511.434 1013.51 507.901C1015.28 505.096 1015.91 501.803 1015.93 496.958L1008.66 497.033L1008.67 501.629C1008.67 504.138 1006.63 506.173 1004.12 506.173L1004.06 506.173C1001.61 506.173 999.596 504.222 999.522 501.768L999.335 495.546L999.223 488.607L1016.12 488.506C1016.12 488.506 1016.19 475.368 1015.87 473.114C1015.41 469.96 1014.72 467.501 1013.18 465.711C1010.66 462.785 1008.06 461.768 1005.1 461.768ZM1004.23 470.753C1006.96 470.753 1009.19 472.979 1009.19 475.706L1009.19 482.329L999.281 482.329L999.281 475.706C999.281 472.986 1001.51 470.753 1004.23 470.753Z" fill="#193052" fill-rule="nonzero" opacity="1" stroke="none"/>
<path d="M1038.81 461.891C1036.96 461.96 1033.36 464.011 1031.39 466.708L1031.39 463.541L1023.26 463.446L1023.26 526.28L1031.39 526.375L1031.39 508.521C1033.63 511.18 1035.91 512.826 1039.21 512.803C1041.42 512.788 1045 511.267 1047.16 506.295C1049.05 501.949 1049.42 494.629 1049.42 487.426C1049.42 479.61 1048.86 471.1 1046.53 466.671C1044.42 462.68 1041.13 461.804 1038.81 461.891ZM1037.05 469.69C1038.71 469.763 1040.31 471.364 1041.06 474.043C1041.97 477.324 1042.29 482.026 1042.32 487.635C1042.34 490.922 1042.32 496.927 1041.29 500.305C1040.26 503.681 1038.99 504.34 1037.31 504.395C1035.41 504.457 1032.29 503.489 1031.39 501.552L1031.39 473.437C1031.71 471.007 1034.68 469.586 1037.05 469.69Z" fill="#193052" fill-rule="nonzero" opacity="1" stroke="none"/>
<path d="M1071.11 461.634C1067.85 461.634 1063.71 463.299 1061.43 467.278C1058.7 472.057 1058.15 479.869 1058.15 487.724C1058.15 495.068 1058.66 503.317 1061.09 508.054C1063.42 512.602 1067.6 513.756 1071.11 513.756C1074.29 513.756 1077.87 511.927 1079.98 508.112C1082.61 503.338 1083.38 495.724 1083.38 487.724C1083.38 479.358 1082.63 471.529 1079.58 466.76C1077.38 463.323 1074.11 461.634 1071.11 461.634ZM1070.42 470.446C1071.56 470.446 1072.96 471.353 1073.82 473.441C1075.16 476.69 1075.49 482.274 1075.49 488.3C1075.49 494.529 1075.29 500.28 1073.93 503.504C1073.13 505.403 1071.5 506.269 1070.42 506.269C1069.21 506.269 1067.62 505.476 1066.73 503.159C1065.48 499.883 1065.18 494.155 1065.18 488.357C1065.18 481.73 1065.91 475.966 1067.48 472.865C1068.26 471.335 1069.46 470.446 1070.42 470.446Z" fill="#193052" fill-rule="nonzero" opacity="1" stroke="none"/>
<path d="M1108.78 462.026C1105.59 461.37 1102.61 463.132 1100.93 467.641L1099.73 472.854C1099.72 472.924 1099.66 472.975 1099.59 472.98L1099.59 472.98C1099.49 472.987 1099.41 472.912 1099.41 472.818L1099.41 464.841C1099.41 464.661 1099.27 464.515 1099.09 464.515L1092.5 464.515C1092.32 464.515 1092.17 464.661 1092.17 464.841L1092.17 511.529C1092.17 511.71 1092.32 511.857 1092.5 511.855L1100.13 511.799C1100.31 511.798 1100.45 511.652 1100.45 511.473L1100.44 480.026C1100.44 477.816 1101.49 475.736 1103.26 474.419L1103.26 474.419C1103.22 474.35 1105.41 473.017 1108.71 473.908L1108.78 462.026Z" fill="#193052" fill-rule="nonzero" opacity="1" stroke="none"/>
<path d="M1117.89 463.764L1117.99 450.931L1124.86 450.931L1124.87 463.963L1130.4 463.989L1130.4 472.404L1124.91 472.441L1125 501.533C1125 501.882 1125.04 502.23 1125.12 502.569L1125.19 502.886C1125.39 503.722 1126.14 504.305 1127 504.282L1129.17 504.222L1129.19 511.855L1123.2 511.855C1120.36 511.855 1118.05 509.555 1118.04 506.711L1118.04 506.581L1118.03 472.184L1112.46 472.206L1112.46 463.809L1117.89 463.764Z" fill="#193052" fill-rule="nonzero" opacity="1" stroke="none"/>
<path d="M1136.31 446.948L1136.31 458.582L1144.31 458.582L1144.31 446.948L1136.31 446.948ZM1136.48 463.419L1136.48 511.855L1144.37 511.855L1144.37 463.419L1136.48 463.419Z" fill="#193052" fill-rule="nonzero" opacity="1" stroke="none"/>
<path d="M1153.59 463.42L1161.49 463.42L1161.53 468.655L1161.77 467.975C1164.92 459.003 1178.19 461.287 1178.16 470.795L1178.16 470.795L1178.62 511.855L1170.53 511.836L1170.11 474.729C1170.1 474.21 1170.04 473.693 1169.91 473.188L1169.86 472.98C1168.82 468.739 1162.74 468.899 1161.93 473.188L1161.89 473.402C1161.8 473.836 1161.76 474.277 1161.76 474.718L1161.9 511.855L1153.59 511.855L1153.59 463.42Z" fill="#193052" fill-rule="nonzero" opacity="1" stroke="none"/>
<path d="M1198.22 461.98C1194.01 461.923 1191.34 464.502 1190.04 467.841C1188.6 471.539 1187.91 481.031 1187.91 486.399C1187.91 493.246 1188.48 499.786 1190.33 504.253C1192.15 508.668 1194.76 510.976 1198.05 511.049C1202.45 511.147 1204.99 508.265 1205.77 504.119L1205.76 515.311L1205.76 515.599C1205.74 519.483 1201.81 522.145 1198.22 520.667C1197.25 520.268 1196.54 519.348 1196.43 518.306L1196.14 515.368L1188.54 515.426L1188.58 516.683C1188.75 522.978 1193.88 528.002 1200.18 528.037L1200.52 528.039C1207.21 527.948 1212.64 522.57 1212.79 515.887L1212.79 463.247L1205.71 463.247L1205.71 470.676C1205.15 468.992 1204.63 467.144 1203.96 465.857C1202.51 463.078 1200.28 462.007 1198.22 461.98ZM1201.67 470.791C1203.29 470.791 1205.53 472.922 1205.71 476.032L1205.76 497.342C1205.71 500.954 1203.31 502.698 1201.67 502.698C1200.32 502.698 1198.32 502.002 1197.35 499.703C1196.13 496.775 1196.09 491.684 1196.09 486.745C1196.09 481.695 1195.97 476.251 1197.24 473.325C1198.19 471.143 1200.36 470.791 1201.67 470.791Z" fill="#193052" fill-rule="nonzero" opacity="1" stroke="none"/>
<path d="M1221.53 498.395L1230.49 498.395L1230.49 511.855L1221.53 511.855L1221.53 498.395Z" fill="#193052" fill-rule="nonzero" opacity="1" stroke="none"/>
<path d="M1251.35 448.885L1260.49 448.885L1267.47 494.519L1274.23 448.885L1283.68 448.885L1273.07 511.855L1262.1 511.855L1251.35 448.885Z" fill="#193052" fill-rule="nonzero" opacity="1" stroke="none"/>
<path d="M1289.75 446.948L1289.75 458.582L1297.76 458.582L1297.76 446.948L1289.75 446.948ZM1289.93 463.419L1289.93 511.855L1297.82 511.855L1297.82 463.419L1289.93 463.419Z" fill="#193052" fill-rule="nonzero" opacity="1" stroke="none"/>
<path d="M1307.38 472.416C1307.99 466.658 1312.8 462.264 1318.59 462.185L1318.59 462.185L1318.82 462.164C1320.57 461.994 1322.33 462.317 1323.91 463.098L1324.36 463.323C1325.36 463.814 1326.22 464.531 1326.89 465.416L1326.95 465.497C1328.45 467.489 1329.27 469.915 1329.27 472.41L1329.28 475.679L1322.56 475.785L1322.45 472.819C1322.42 472.019 1322.07 471.265 1321.47 470.732L1321.17 470.466C1319.01 468.537 1315.58 469.534 1314.79 472.32L1314.75 472.475C1314.75 472.475 1314.26 477.088 1315.01 479.029C1315.77 480.97 1316.51 482.072 1319.03 483.251C1321.56 484.43 1323.53 485.908 1323.53 485.908C1323.53 485.908 1326.63 488.002 1328.07 490.27C1329.17 491.999 1329.77 493.36 1330.12 494.652C1330.33 495.421 1330.41 496.668 1330.41 496.668L1330.52 500.006C1330.75 506.742 1325.72 512.504 1319.02 513.185L1319.02 513.185L1317.62 513.205C1313.04 513.269 1308.89 510.492 1307.21 506.23L1307.2 506.202C1306.96 505.589 1306.83 504.94 1306.8 504.281L1306.54 497.069L1314.02 497.097L1314.09 501.746C1314.1 502.579 1314.36 503.39 1314.82 504.083L1314.83 504.103C1316.52 506.627 1320.12 506.921 1322.19 504.703L1322.19 504.703C1322.68 504.178 1323.01 503.518 1323.12 502.809L1323.12 502.809C1323.35 501.339 1323.34 499.839 1323.07 498.375L1323.03 498.133C1322.73 496.463 1321.75 494.993 1320.32 494.07L1317.61 492.309C1315.65 491.042 1313.8 489.619 1312.07 488.055L1310.74 486.846C1309.87 486.062 1309.17 485.112 1308.68 484.052L1308.68 484.052C1307.66 481.861 1307.14 479.472 1307.16 477.056L1307.17 475.394C1307.18 474.642 1307.22 473.89 1307.3 473.142L1307.38 472.416Z" fill="#193052" fill-rule="nonzero" opacity="1" stroke="none"/>
<path d="M1337.97 446.948L1337.97 458.582L1345.98 458.582L1345.98 446.948L1337.97 446.948ZM1338.15 463.419L1338.15 511.855L1346.04 511.855L1346.04 463.419L1338.15 463.419Z" fill="#193052" fill-rule="nonzero" opacity="1" stroke="none"/>
<path d="M1355.1 448.906L1355.1 511.855L1363.57 511.855L1363.57 504.253C1363.66 504.42 1363.52 505.695 1365.23 509.001C1366.55 511.537 1368.8 512.834 1370.65 512.834C1373.14 512.834 1376.37 510.97 1378.08 506.845C1380.06 502.095 1380.32 494.612 1380.32 486.943C1380.32 479.642 1380.07 472.972 1378.25 468.257C1376.51 463.72 1373.1 461.922 1370.48 461.922C1368.19 461.922 1365.92 463.671 1364.23 467.013C1364.02 467.423 1363.76 468.266 1363.57 468.718L1363.57 448.906L1355.1 448.906ZM1368.06 470.273C1369.46 470.424 1370.85 471.179 1371.63 473.325C1372.77 476.459 1373.09 481.802 1373.09 487.435C1373.09 493.315 1372.91 498.909 1371.69 502.007C1370.94 503.91 1369.04 504.599 1368.06 504.599C1367.14 504.599 1365.64 503.986 1364.55 502.18C1364.16 501.542 1363.58 500.764 1363.57 499.588L1363.57 475.111C1363.97 472.972 1364.18 472.512 1364.66 471.894C1365.63 470.656 1366.89 470.147 1368.06 470.273Z" fill="#193052" fill-rule="nonzero" opacity="1" stroke="none"/>
<path d="M1390.15 448.434L1399.04 448.434L1399.04 511.855L1390.15 511.855L1390.15 448.434Z" fill="#193052" fill-rule="nonzero" opacity="1" stroke="none"/>
<path d="M1420.56 461.872C1416.91 461.872 1411.9 462.74 1409.52 467.517C1407.19 472.206 1407.16 473.468 1407.37 487.213C1407.63 503.597 1408.83 505.797 1409.2 506.603C1409.38 506.977 1410.65 509.488 1412.62 510.888C1415.02 512.596 1418.43 513.188 1420.44 513.188C1423.53 513.188 1426.73 511.538 1428.97 508.004C1430.74 505.2 1431.37 501.906 1431.39 497.062L1424.12 497.136L1424.13 501.733C1424.13 504.242 1422.1 506.276 1419.59 506.276L1419.52 506.276C1417.07 506.276 1415.06 504.326 1414.98 501.872L1414.8 495.65L1414.68 488.711L1431.58 488.609C1431.58 488.609 1431.66 475.471 1431.33 473.218C1430.87 470.064 1430.18 467.605 1428.64 465.814C1426.12 462.888 1423.52 461.872 1420.56 461.872ZM1419.7 470.857C1422.42 470.857 1424.65 473.083 1424.65 475.81L1424.65 482.433L1414.74 482.433L1414.74 475.81C1414.74 473.09 1416.97 470.857 1419.7 470.857Z" fill="#193052" fill-rule="nonzero" opacity="1" stroke="none"/>
<path d="M1474.95 448.733L1458.14 448.906L1458.14 511.855L1466.26 511.855L1466.26 485.65L1474.2 485.592C1479.85 485.55 1484.44 481.011 1484.54 475.362L1484.57 473.383L1484.4 460.252L1484.31 457.114C1484.19 452.518 1480.47 448.833 1475.87 448.75L1474.95 448.733ZM1465.58 455.831L1471.74 455.831L1471.84 455.831C1474.64 455.831 1476.91 458.111 1476.9 460.917L1476.87 471.9C1476.86 474.694 1474.59 476.954 1471.8 476.954L1465.51 476.954L1465.58 455.831Z" fill="#193052" fill-rule="nonzero" opacity="1" stroke="none"/>
<path d="M1509.29 462.026C1506.1 461.37 1503.13 463.132 1501.44 467.641L1500.25 472.854C1500.23 472.924 1500.17 472.975 1500.1 472.98L1500.1 472.98C1500 472.987 1499.92 472.912 1499.92 472.818L1499.92 464.841C1499.92 464.661 1499.78 464.515 1499.6 464.515L1493.01 464.515C1492.83 464.515 1492.68 464.661 1492.68 464.841L1492.68 511.529C1492.68 511.71 1492.83 511.857 1493.01 511.855L1500.64 511.799C1500.82 511.798 1500.97 511.652 1500.96 511.473L1500.95 480.026C1500.95 477.816 1502 475.736 1503.77 474.419L1503.77 474.419C1503.73 474.35 1505.92 473.017 1509.22 473.908L1509.29 462.026Z" fill="#193052" fill-rule="nonzero" opacity="1" stroke="none"/>
<path d="M1528.44 461.461C1525.18 461.461 1521.04 463.127 1518.76 467.106C1516.03 471.884 1515.48 479.697 1515.48 487.551C1515.48 494.895 1515.98 503.144 1518.42 507.881C1520.75 512.43 1524.93 513.583 1528.44 513.583C1531.62 513.583 1535.2 511.755 1537.31 507.939C1539.94 503.165 1540.7 495.552 1540.7 487.551C1540.7 479.186 1539.95 471.356 1536.9 466.587C1534.7 463.15 1531.44 461.461 1528.44 461.461ZM1527.75 470.273C1528.88 470.273 1530.28 471.18 1531.14 473.268C1532.48 476.517 1532.81 482.102 1532.81 488.127C1532.81 494.357 1532.61 500.108 1531.26 503.332C1530.46 505.23 1528.82 506.096 1527.75 506.096C1526.54 506.096 1524.95 505.303 1524.06 502.986C1522.8 499.71 1522.5 493.982 1522.5 488.185C1522.5 481.557 1523.24 475.793 1524.81 472.692C1525.58 471.162 1526.78 470.273 1527.75 470.273Z" fill="#193052" fill-rule="nonzero" opacity="1" stroke="none"/>
<path d="M1558.92 461.96C1554.7 461.904 1552.04 464.482 1550.74 467.821C1549.3 471.519 1548.61 481.011 1548.61 486.379C1548.61 493.226 1549.18 499.766 1551.02 504.233C1552.85 508.648 1555.46 510.956 1558.74 511.029C1563.15 511.127 1565.69 508.245 1566.47 504.099L1566.46 515.291L1566.46 515.579C1566.44 519.463 1562.51 522.125 1558.92 520.647C1557.95 520.249 1557.23 519.328 1557.13 518.286L1556.84 515.349L1549.24 515.406L1549.27 516.663C1549.45 522.958 1554.58 527.982 1560.88 528.017L1561.22 528.019C1567.9 527.928 1573.33 522.55 1573.49 515.867L1573.49 463.227L1566.4 463.227L1566.4 470.656C1565.85 468.972 1565.32 467.124 1564.65 465.837C1563.21 463.058 1560.98 461.987 1558.92 461.96ZM1562.37 470.771C1563.99 470.771 1566.23 472.902 1566.4 476.012L1566.46 497.322C1566.4 500.935 1564.01 502.678 1562.37 502.678C1561.02 502.678 1559.01 501.982 1558.05 499.683C1556.83 496.755 1556.78 491.664 1556.78 486.725C1556.78 481.675 1556.66 476.231 1557.94 473.306C1558.89 471.123 1561.06 470.771 1562.37 470.771Z" fill="#193052" fill-rule="nonzero" opacity="1" stroke="none"/>
<path d="M1599.48 462.023C1596.29 461.367 1593.32 463.129 1591.63 467.638L1590.44 472.852C1590.42 472.921 1590.36 472.972 1590.29 472.978L1590.29 472.978C1590.19 472.984 1590.11 472.91 1590.11 472.815L1590.11 464.839C1590.11 464.659 1589.97 464.513 1589.79 464.513L1583.2 464.513C1583.02 464.513 1582.87 464.659 1582.87 464.839L1582.87 511.527C1582.87 511.708 1583.02 511.854 1583.2 511.853L1590.83 511.797C1591.01 511.796 1591.16 511.65 1591.16 511.47L1591.14 480.024C1591.14 477.814 1592.19 475.734 1593.96 474.416L1593.96 474.416C1593.92 474.348 1596.11 473.014 1599.41 473.905L1599.48 462.023Z" fill="#193052" fill-rule="nonzero" opacity="1" stroke="none"/>
<path d="M1618.49 462.101C1614.84 462.101 1609.83 462.969 1607.45 467.746C1605.12 472.435 1605.09 473.697 1605.3 487.442C1605.56 503.826 1606.76 506.025 1607.14 506.832C1607.31 507.205 1608.58 509.717 1610.55 511.117C1612.95 512.825 1616.36 513.417 1618.38 513.417C1621.46 513.417 1624.66 511.767 1626.9 508.233C1628.68 505.429 1629.31 502.135 1629.32 497.291L1622.06 497.365L1622.06 501.962C1622.06 504.471 1620.03 506.505 1617.52 506.505L1617.46 506.505C1615 506.505 1612.99 504.555 1612.92 502.101L1612.73 495.879L1612.62 488.94L1629.51 488.838C1629.51 488.838 1629.59 475.7 1629.26 473.447C1628.81 470.293 1628.11 467.834 1626.57 466.043C1624.06 463.117 1621.46 462.101 1618.49 462.101ZM1617.63 471.086C1620.36 471.086 1622.58 473.312 1622.58 476.039L1622.58 482.662L1612.68 482.662L1612.68 476.039C1612.68 473.319 1614.9 471.086 1617.63 471.086Z" fill="#193052" fill-rule="nonzero" opacity="1" stroke="none"/>
<path d="M1636.75 472.813C1637.36 467.054 1642.18 462.661 1647.97 462.582L1647.97 462.582L1648.19 462.56C1649.94 462.39 1651.71 462.714 1653.28 463.495L1653.74 463.719C1654.73 464.211 1655.59 464.928 1656.26 465.812L1656.32 465.894C1657.83 467.886 1658.64 470.311 1658.65 472.806L1658.66 476.075L1651.93 476.181L1651.83 473.216C1651.8 472.416 1651.44 471.662 1650.84 471.128L1650.55 470.863C1648.39 468.934 1644.95 469.931 1644.16 472.716L1644.12 472.871C1644.12 472.871 1643.63 477.485 1644.39 479.426C1645.14 481.367 1645.88 482.469 1648.41 483.648C1650.93 484.827 1652.91 486.305 1652.91 486.305C1652.91 486.305 1656.01 488.399 1657.45 490.667C1658.54 492.396 1659.14 493.757 1659.49 495.049C1659.7 495.818 1659.78 497.064 1659.78 497.064L1659.89 500.403C1660.13 507.138 1655.1 512.901 1648.39 513.582L1648.39 513.582L1646.99 513.602C1642.41 513.666 1638.27 510.889 1636.59 506.627L1636.58 506.599C1636.34 505.986 1636.2 505.337 1636.18 504.678L1635.91 497.466L1643.39 497.494L1643.46 502.143C1643.48 502.976 1643.73 503.787 1644.19 504.48L1644.21 504.499C1645.89 507.024 1649.49 507.317 1651.57 505.099L1651.57 505.099C1652.06 504.574 1652.38 503.915 1652.49 503.205L1652.49 503.205C1652.73 501.735 1652.71 500.236 1652.45 498.771L1652.4 498.53C1652.1 496.86 1651.12 495.389 1649.7 494.467L1646.98 492.706C1645.02 491.439 1643.17 490.016 1641.45 488.451L1640.11 487.243C1639.25 486.458 1638.55 485.508 1638.06 484.449L1638.06 484.449C1637.04 482.258 1636.52 479.868 1636.53 477.452L1636.55 475.791C1636.55 475.039 1636.59 474.287 1636.67 473.539L1636.75 472.813Z" fill="#193052" fill-rule="nonzero" opacity="1" stroke="none"/>
<path d="M1667.91 472.386C1668.52 466.628 1673.34 462.234 1679.13 462.155L1679.13 462.155L1679.35 462.134C1681.1 461.964 1682.87 462.287 1684.44 463.068L1684.9 463.293C1685.89 463.784 1686.75 464.501 1687.42 465.386L1687.48 465.467C1688.99 467.459 1689.8 469.885 1689.81 472.38L1689.81 475.649L1683.09 475.755L1682.98 472.789C1682.96 471.989 1682.6 471.235 1682 470.702L1681.71 470.436C1679.55 468.507 1676.11 469.504 1675.32 472.29L1675.28 472.445C1675.28 472.445 1674.79 477.058 1675.55 478.999C1676.3 480.94 1677.04 482.042 1679.57 483.221C1682.09 484.4 1684.06 485.878 1684.06 485.878C1684.06 485.878 1687.17 487.972 1688.6 490.24C1689.7 491.969 1690.3 493.33 1690.65 494.622C1690.86 495.391 1690.94 496.638 1690.94 496.638L1691.05 499.976C1691.29 506.712 1686.26 512.474 1679.55 513.155L1679.55 513.155L1678.15 513.175C1673.57 513.239 1669.43 510.462 1667.75 506.2L1667.74 506.172C1667.49 505.559 1667.36 504.91 1667.33 504.251L1667.07 497.039L1674.55 497.067L1674.62 501.716C1674.64 502.549 1674.89 503.36 1675.35 504.053L1675.37 504.073C1677.05 506.597 1680.65 506.891 1682.72 504.673L1682.72 504.673C1683.22 504.148 1683.54 503.488 1683.65 502.779L1683.65 502.779C1683.89 501.309 1683.87 499.81 1683.61 498.345L1683.56 498.103C1683.26 496.433 1682.28 494.963 1680.86 494.04L1678.14 492.279C1676.18 491.012 1674.33 489.59 1672.61 488.025L1671.27 486.816C1670.41 486.032 1669.71 485.082 1669.22 484.022L1669.22 484.022C1668.2 481.831 1667.68 479.442 1667.69 477.026L1667.7 475.364C1667.71 474.612 1667.75 473.86 1667.83 473.112L1667.91 472.386Z" fill="#193052" fill-rule="nonzero" opacity="1" stroke="none"/>
<path d="M1699.98 498.499L1708.37 498.499L1708.37 511.855L1699.98 511.855L1699.98 498.499Z" fill="#193052" fill-rule="nonzero" opacity="1" stroke="none"/>
</g>
<g opacity="1">
<path d="M218.369 385.923C217.848 385.403 218.113 384.511 218.834 384.361L259.66 375.842C260.406 375.686 261.184 375.835 261.82 376.255L314.533 411.083C315.217 411.535 315.095 412.573 314.325 412.855L265.441 430.746C264.483 431.097 263.409 430.86 262.686 430.14L218.369 385.923Z" fill="#2b7765" fill-rule="nonzero" opacity="1" stroke="none"/>
<path d="M63.6379 353.723C63.3702 353.288 63.6594 352.726 64.1681 352.691L125.927 348.43C137.734 347.814 151.037 347.212 158.676 346.744L180.866 345.662C195.825 344.974 203.427 344.674 221.784 344.491L240.703 344.297C250.415 344.451 255.256 344.509 263.429 344.684L293.922 346.011C317.138 347.483 325.389 348.093 343.697 349.319L385.236 353.063C385.851 353.118 386.206 353.788 385.906 354.328L365.139 391.704C364.378 393.074 363.119 394.099 361.624 394.568L336.935 402.309C335.842 402.652 334.652 402.491 333.689 401.871L265.547 357.964C263.622 356.724 261.272 356.332 259.049 356.882L92.4069 398.077C91.6775 398.257 90.9157 397.946 90.521 397.307L63.6379 353.723Z" fill="#2b7765" fill-rule="nonzero" opacity="1" stroke="none"/>
<path d="M280.818 221.411L321.191 221.258L321.459 239.355L348.045 239.392L348.393 324.636L368.802 325.692L363.638 333.698L343.255 332.238L305.737 329.947L280.914 321.395L280.818 221.411Z" fill="#2f7767" fill-rule="nonzero" opacity="1" stroke="none"/>
<path d="M232.015 121.918L224.149 122.03L224.181 153.962L207.676 152.611L207.837 178.703L187.375 183.707L187.568 321.231L177.659 321.263L176.918 250.627L153.561 238.192L153.143 227.543L126.552 227.446L126.712 237.323L117.881 236.889L117.398 293.803L91.8528 293.98L91.9817 331.092L87.9761 331.044L88.346 335.339L109.58 333.569C123.957 332.497 124.936 332.499 138.488 331.768L157.47 330.818C166.121 330.508 169.168 330.219 177.144 330.062L235.86 329.145L281.45 329.628L306.448 329.998L280.933 321.381L269.819 321.408L269.095 163.759L249.952 167.91L250.016 150.263L232.61 154.928L232.015 121.918ZM210.057 194.774L226.224 194.774L226.224 222.282L210.057 222.282L210.057 194.774ZM209.349 240.605L226.707 240.605L226.707 265.008L209.349 265.008L209.349 240.605ZM133.678 251.72L149.732 251.72L149.732 270.687L133.678 270.687L133.678 251.72ZM133.389 279.325L150.151 279.325L150.151 299.385L133.389 299.385L133.389 279.325Z" fill="#193052" fill-rule="nonzero" opacity="1" stroke="none"/>
<path d="M223.103 66.3065C152.17 66.3065 89.2849 103.245 58.0549 160.847C35.9124 201.688 32.3137 226.624 36.0966 271.893C37.7387 291.543 46.0306 316.192 56.1086 338.604C56.3641 338.569 58.2743 338.312 61.0616 338.043C67.2342 337.448 70.0309 337.141 75.5721 336.606C85.7565 335.624 92.8128 334.925 92.7922 334.907C92.5109 334.653 89.8254 331.879 88.5391 329.998C73.6971 308.296 66.3623 282.17 65.6962 255.469C64.7503 217.572 78.2779 182.216 103.483 152.45C132.464 118.227 177.177 97.6915 223.94 97.6915C281.473 97.6915 336.56 131.873 364.279 180.602C378.685 205.926 384.887 238.502 383.101 265.764C382.373 276.874 379.111 292.507 374.736 305.723C370.884 317.355 365.992 326.997 363.024 333.569C362.977 333.674 364.261 333.732 380.745 335.409C394.814 336.84 395.425 336.981 395.696 336.996C407.199 310.357 411.665 291.511 413.538 270.357C416.534 236.528 409.876 201.174 396.131 172.542C365.221 108.16 299.461 66.3065 223.103 66.3065ZM194.485 392.559C193.698 392.542 192.906 392.631 192.12 392.816L102.631 413.793C112.516 426.651 123.739 440.321 135.528 453.414C169.582 491.237 218.136 533.165 225.179 533.685C232.615 534.238 263.886 508.148 295.445 475.517C313.706 456.635 335.099 435.568 349.721 415.015L268.03 448.552C262.717 450.733 256.616 449.551 252.502 445.543L200.872 395.245C199.138 393.556 196.848 392.609 194.485 392.559Z" fill="#193052" fill-rule="nonzero" opacity="1" stroke="none"/>
</g>
</g>
</svg>
