<?xml version="1.0" encoding="UTF-8" standalone="no"?>
<!DOCTYPE svg PUBLIC "-//W3C//DTD SVG 1.1//EN" "http://www.w3.org/Graphics/SVG/1.1/DTD/svg11.dtd">
<!-- Created with Vectornator (http://vectornator.io/) -->
<svg height="1024.0pt" stroke-miterlimit="10" style="fill-rule:nonzero;clip-rule:evenodd;stroke-linecap:round;stroke-linejoin:round;" version="1.1" viewBox="0 0 1024 1024" width="1024.0pt" xml:space="preserve" xmlns="http://www.w3.org/2000/svg" xmlns:xlink="http://www.w3.org/1999/xlink">
<defs/>
<clipPath id="ArtboardFrame">
<rect height="1024" width="1024" x="0" y="0"/>
</clipPath>
<g clip-path="url(#ArtboardFrame)" id="Layer-1-copy">
<path d="M507.906 12.7188C356.587 12.7188 222.434 91.5251 155.812 214.406C108.577 301.53 100.899 354.709 108.969 451.281C112.472 493.2 130.158 545.784 151.656 593.594C152.201 593.52 156.272 592.98 162.219 592.406C175.387 591.136 181.367 590.484 193.187 589.344C210.42 587.682 217.68 586.947 222.312 586.469L265.719 582.844C296.388 580.558 298.497 580.591 327.406 579.031L367.906 577C386.362 576.339 392.86 575.71 409.875 575.375L535.125 573.438L632.375 574.438L685.719 575.25L685.594 575.219L764.219 580.031L807.719 583.125L807.812 583C807.957 583.214 810.334 583.338 844.188 586.781C874.201 589.834 875.515 590.126 876.094 590.156C900.632 533.33 910.16 493.125 914.156 448C920.547 375.833 906.355 300.422 877.031 239.344C811.092 101.998 670.797 12.7188 507.906 12.7188ZM509.688 79.6562C632.422 79.6562 749.93 152.58 809.062 256.531C839.794 310.555 853.029 380.061 849.219 438.219C847.666 461.919 840.71 495.274 831.375 523.469C825.884 540.053 819.801 553.748 814.219 565.844L775.188 563.812L774.438 381.969L717.719 381.875L717.156 343.281L631.031 343.594L631.25 556.844L607.562 556.906L606.031 220.594L565.187 229.469L565.312 191.813L528.187 201.781L526.906 131.344L510.125 131.594L510.219 199.719L475 196.812L475.344 252.5L431.688 263.156L432.094 556.531L410.969 556.594L409.375 405.906L359.562 379.406L358.656 356.688L301.937 356.469L302.281 377.531L283.437 376.625L282.406 498.031L227.906 498.406L228.188 577.562L222.687 577.5C222.079 576.732 221.317 575.942 220.844 575.25C189.182 528.953 173.546 473.212 172.125 416.25C170.108 335.406 198.948 259.967 252.719 196.469C314.542 123.461 409.931 79.6563 509.688 79.6562ZM480.062 286.781L514.562 286.781L514.562 345.469L480.062 345.469L480.062 286.781ZM478.562 384.531L515.594 384.531L515.594 436.594L478.562 436.594L478.562 384.531ZM317.125 408.25L351.375 408.25L351.375 448.719L317.125 448.719L317.125 408.25ZM316.531 467.156L352.281 467.156L352.281 509.938L316.531 509.938L316.531 467.156ZM545.469 605.75L505.094 606.156C465.932 606.548 449.724 607.189 417.812 608.656L370.469 610.969C354.173 611.968 325.783 613.25 300.594 614.562L168.857 623.655C167.772 623.73 167.156 624.931 167.726 625.856L225.049 718.822C225.89 720.186 227.516 720.851 229.072 720.466L584.598 632.592C589.34 631.42 594.356 632.256 598.462 634.902L743.819 728.566C745.873 729.89 748.41 730.233 750.742 729.502L803.416 712.997C806.608 711.997 809.293 709.809 810.917 706.885L855.214 627.135C855.854 625.982 855.097 624.553 853.784 624.435L765.156 616.469C726.101 613.855 708.525 612.546 659 609.406L593.937 606.562C576.5 606.188 566.187 606.079 545.469 605.75ZM588.281 673C587.498 672.85 586.703 672.865 585.906 673.031L498.822 691.217C497.284 691.538 496.718 693.439 497.83 694.549L592.334 788.865C593.874 790.402 596.166 790.907 598.21 790.159L702.499 752C704.141 751.399 704.401 749.186 702.942 748.222L590.5 673.906C589.821 673.458 589.065 673.15 588.281 673ZM446.844 708.688C445.164 708.651 443.488 708.855 441.812 709.25L250.906 754C271.994 781.43 295.945 810.599 321.094 838.531C393.74 919.218 497.321 1008.63 512.344 1009.75C528.208 1010.93 594.896 955.298 662.219 885.688C701.175 845.407 746.839 800.437 778.031 756.594L603.745 828.158C592.411 832.812 579.395 830.291 570.618 821.741L460.469 714.438C456.77 710.833 451.884 708.796 446.844 708.688Z" fill="#193052" fill-rule="nonzero" opacity="1" stroke="#ffffff" stroke-linecap="butt" stroke-linejoin="round" stroke-width="27"/>
<path d="M717.156 343.281L631.031 343.594L631.25 556.875L684.187 575.125L764.219 580.031L807.719 583.125L818.719 566.062L775.188 563.812L774.438 381.969L717.719 381.875L717.156 343.281ZM545.469 605.75L505.094 606.156C465.932 606.548 449.724 607.189 417.812 608.656L370.469 610.969C354.173 611.968 325.783 613.25 300.594 614.562L168.857 623.655C167.772 623.73 167.155 624.931 167.726 625.856L225.054 718.829C225.895 720.193 227.521 720.858 229.077 720.473L584.598 632.593C589.34 631.42 594.355 632.256 598.461 634.902L743.819 728.567C745.874 729.891 748.41 730.234 750.743 729.503L803.397 713.002C806.588 712.002 809.272 709.816 810.897 706.894L855.228 627.139C855.868 625.987 855.111 624.557 853.798 624.439L765.156 616.469C726.101 613.855 708.525 612.546 659 609.406L593.937 606.562C576.5 606.188 566.187 606.079 545.469 605.75ZM590.512 673.914C589.154 673.017 587.495 672.7 585.903 673.032L498.821 691.217C497.283 691.538 496.717 693.439 497.829 694.549L592.334 788.865C593.875 790.402 596.167 790.907 598.211 790.159L702.499 752C704.141 751.399 704.401 749.186 702.942 748.222L590.512 673.914Z" fill="#2f7767" fill-rule="nonzero" opacity="1" stroke="none"/>
<path d="M507.906 12.7188C356.587 12.7188 222.434 91.5251 155.812 214.406C108.577 301.53 100.899 354.709 108.969 451.281C112.472 493.2 130.158 545.784 151.656 593.594C152.201 593.52 156.272 592.98 162.219 592.406C175.387 591.136 181.367 590.484 193.188 589.344C210.42 587.682 217.68 586.947 222.312 586.469L265.719 582.844C296.388 580.558 298.497 580.591 327.406 579.031L367.906 577C386.362 576.339 392.86 575.71 409.875 575.375L535.125 573.438L632.375 574.438L685.719 575.25L631.281 556.844L607.562 556.906L606.031 220.594L565.188 229.469L565.313 191.812L528.188 201.781L526.906 131.344L510.125 131.594L510.219 199.719L475 196.812L475.344 252.5L431.688 263.156L432.094 556.531L410.969 556.594L409.375 405.906L359.562 379.406L358.656 356.688L301.938 356.469L302.281 377.531L283.438 376.625L282.406 498.031L227.906 498.406L228.188 577.562L222.688 577.5C222.079 576.732 221.317 575.942 220.844 575.25C189.182 528.953 173.546 473.212 172.125 416.25C170.108 335.406 198.948 259.967 252.719 196.469C314.542 123.461 409.931 79.6562 509.688 79.6563C632.422 79.6563 749.93 152.58 809.062 256.531C839.794 310.555 853.029 380.061 849.219 438.219C847.666 461.919 840.71 495.274 831.375 523.469C823.159 548.283 812.737 568.824 806.406 582.844C806.305 583.067 809.025 583.205 844.188 586.781C874.201 589.834 875.516 590.126 876.094 590.156C900.632 533.33 910.16 493.125 914.156 448C920.547 375.833 906.355 300.422 877.031 239.344C811.092 101.998 670.797 12.7188 507.906 12.7188ZM480.063 286.781L514.562 286.781L514.562 345.469L480.063 345.469L480.063 286.781ZM478.562 384.531L515.594 384.531L515.594 436.594L478.562 436.594L478.562 384.531ZM317.125 408.25L351.375 408.25L351.375 448.719L317.125 448.719L317.125 408.25ZM316.531 467.156L352.281 467.156L352.281 509.938L316.531 509.938L316.531 467.156ZM446.844 708.688C445.164 708.651 443.488 708.855 441.812 709.25L250.906 754C271.994 781.43 295.945 810.599 321.094 838.531C393.74 919.218 497.321 1008.63 512.344 1009.75C528.208 1010.93 594.896 955.298 662.219 885.688C701.175 845.407 746.839 800.437 778.031 756.594L603.764 828.15C592.431 832.803 579.416 830.283 570.639 821.735L460.469 714.438C456.77 710.833 451.884 708.796 446.844 708.688Z" fill="#193052" fill-rule="nonzero" opacity="1" stroke="none"/>
</g>
</svg>
