<?xml version="1.0" encoding="UTF-8" standalone="no"?>
<!DOCTYPE svg PUBLIC "-//W3C//DTD SVG 1.1//EN" "http://www.w3.org/Graphics/SVG/1.1/DTD/svg11.dtd">
<!-- Created with Vectornator (http://vectornator.io/) -->
<svg height="1024.0pt" stroke-miterlimit="10" style="fill-rule:nonzero;clip-rule:evenodd;stroke-linecap:round;stroke-linejoin:round;" version="1.1" viewBox="0 0 1024 1024" width="1024.0pt" xml:space="preserve" xmlns="http://www.w3.org/2000/svg" xmlns:xlink="http://www.w3.org/1999/xlink">
<defs/>
<g id="Layer-1">
<path d="M497.81 694.544C496.698 693.434 497.264 691.533 498.802 691.212L585.893 673.038C587.485 672.706 589.144 673.023 590.501 673.92L702.952 748.218C704.411 749.182 704.152 751.396 702.51 751.997L598.227 790.164C596.183 790.912 593.891 790.407 592.35 788.87L497.81 694.544Z" fill="#2b7765" fill-rule="nonzero" opacity="1" stroke="none"/>
<path d="M167.726 625.852C167.155 624.926 167.772 623.726 168.857 623.651L300.605 614.561C325.794 613.248 354.172 611.964 370.468 610.964L417.805 608.656C449.716 607.189 465.933 606.549 505.094 606.158L545.454 605.745C566.172 606.073 576.498 606.196 593.935 606.57L658.985 609.401C708.51 612.541 726.112 613.843 765.167 616.457L853.782 624.444C855.094 624.562 855.851 625.992 855.211 627.144L810.908 706.877C809.285 709.799 806.6 711.986 803.41 712.987L750.742 729.5C748.41 730.232 745.872 729.889 743.817 728.565L598.453 634.9C594.347 632.254 589.332 631.419 584.59 632.591L229.098 720.472C227.542 720.857 225.917 720.193 225.075 718.829L167.726 625.852Z" fill="#2b7765" fill-rule="nonzero" opacity="1" stroke="none"/>
<path d="M631.029 343.595L717.157 343.269L717.728 381.876L774.443 381.955L775.186 563.802L818.723 566.055L807.708 583.135L764.224 580.019L684.189 575.133L631.234 556.888L631.029 343.595Z" fill="#2f7767" fill-rule="nonzero" opacity="1" stroke="none"/>
<path d="M526.92 131.35L510.139 131.59L510.208 199.71L474.999 196.827L475.342 252.489L431.691 263.162L432.102 556.538L410.963 556.607L409.384 405.921L359.556 379.394L358.664 356.676L301.938 356.47L302.281 377.541L283.441 376.614L282.411 498.028L227.916 498.405L228.191 577.575L219.646 577.472L220.435 586.634L265.733 582.859C296.403 580.573 298.492 580.576 327.401 579.016L367.895 576.991C386.351 576.33 392.85 575.713 409.865 575.378L535.122 573.422L632.377 574.452L685.705 575.241L631.274 556.859L607.565 556.916L606.021 220.609L565.184 229.463L565.321 191.817L528.19 201.769L526.92 131.35ZM480.078 286.772L514.566 286.772L514.566 345.454L480.078 345.454L480.078 286.772ZM478.568 384.541L515.596 384.541L515.596 436.6L478.568 436.6L478.568 384.541ZM317.14 408.254L351.389 408.254L351.389 448.714L317.14 448.714L317.14 408.254ZM316.523 467.142L352.281 467.142L352.281 509.936L316.523 509.936L316.523 467.142Z" fill="#193052" fill-rule="nonzero" opacity="1" stroke="none"/>
<path d="M507.909 12.7162C356.589 12.7162 222.438 91.5162 155.816 214.397C108.58 301.522 100.903 354.716 108.973 451.288C112.476 493.206 130.165 545.79 151.664 593.601C152.209 593.526 156.284 592.977 162.23 592.404C175.398 591.133 181.364 590.478 193.185 589.338C214.911 587.243 229.964 585.752 229.92 585.713C229.32 585.172 223.591 579.254 220.847 575.241C189.185 528.944 173.538 473.212 172.117 416.25C170.099 335.406 198.957 259.982 252.727 196.484C314.551 123.476 409.936 79.6688 509.693 79.6688C632.427 79.6688 749.942 152.588 809.075 256.539C839.806 310.562 853.036 380.055 849.226 438.213C847.673 461.914 840.716 495.262 831.381 523.457C823.165 548.271 812.729 568.839 806.398 582.859C806.297 583.083 809.037 583.207 844.2 586.784C874.214 589.836 875.518 590.138 876.096 590.169C900.634 533.342 910.161 493.137 914.157 448.011C920.548 375.844 906.346 300.424 877.023 239.346C811.083 102 670.8 12.7162 507.909 12.7162ZM446.859 708.7C445.179 708.664 443.49 708.854 441.814 709.249L250.908 753.998C271.997 781.429 295.938 810.589 321.087 838.521C393.733 919.208 497.313 1008.65 512.336 1009.76C528.2 1010.94 594.91 955.284 662.232 885.673C701.189 845.392 746.825 800.45 778.018 756.606L603.75 828.148C592.415 832.801 579.401 830.279 570.625 821.729L460.483 714.431C456.784 710.827 451.899 708.808 446.859 708.7Z" fill="#193052" fill-rule="nonzero" opacity="1" stroke="none"/>
</g>
</svg>
