<?xml version="1.0" encoding="UTF-8"?>
<svg xmlns="http://www.w3.org/2000/svg" viewBox="0 0 512 512" role="img" aria-labelledby="title" style="color:#17324d">
  <title>Potholes domain icon</title>
  
  <g fill="none" stroke-linecap="round" stroke-linejoin="round">
    
      <path fill="currentColor" fill-rule="evenodd" d="M92 258c0-69 74-118 164-118s164 49 164 118-74 118-164 118S92 327 92 258zm112 18c0 24 24 42 54 42s54-18 54-42-24-42-54-42-54 18-54 42z"/>
      <path d="M152 174l-34-30M232 144l-12-40M334 168l34-24M386 258l40 0M338 352l26 34M222 388l-12 36M122 340l-38 20" fill="none" stroke="currentColor" stroke-width="20" stroke-linecap="round"/>
    
  </g>
</svg>
